<svg width="100" height="47" viewBox="0 0 100 47" fill="none" xmlns="http://www.w3.org/2000/svg">
<g clip-path="url(#clip0_2103_836)">
<path d="M22.6357 25.0917H31.0132L36.676 18.9021H28.0961L22.6357 25.0917Z" fill="#333333"/>
<path d="M44.986 25.0917H52.1073L52.1644 18.9021H45.0119L44.986 25.0917Z" fill="#333333"/>
<path d="M30.2035 16.4951H38.8768L45.0691 9.71156L45.0275 16.4951H52.1904L52.3254 0.562683H44.2386L30.2035 16.4951Z" fill="#333333"/>
<path d="M99.2681 14.161C98.7929 13.323 98.1279 12.6091 97.3268 12.0769C96.5082 11.532 95.6216 11.0976 94.6901 10.7848C93.7489 10.4595 92.7863 10.2001 91.8093 10.0085C90.8439 9.82445 89.9598 9.65078 89.157 9.48754C88.48 9.36452 87.8221 9.15256 87.2002 8.85712C86.9922 8.78278 86.811 8.64792 86.6797 8.46975C86.5485 8.29157 86.473 8.07817 86.4631 7.85679C86.4648 7.57214 86.57 7.29791 86.759 7.0857C87.0322 6.8082 87.3775 6.61325 87.7556 6.52301C88.3726 6.36523 89.0085 6.29508 89.6449 6.31461C90.7586 6.32054 91.8667 6.47292 92.9409 6.76788C94.1533 7.10529 95.3288 7.56436 96.4496 8.13813L98.9515 2.13613C97.5973 1.38299 96.1381 0.838528 94.6226 0.521014C93.016 0.172823 91.3768 -0.00183979 89.7332 7.22473e-06C87.5767 -0.0650353 85.43 0.316268 83.4267 1.12017C81.9024 1.7412 80.5837 2.78139 79.6221 4.12117C78.7778 5.3445 78.3333 6.80111 78.3504 8.28922C78.3107 9.42649 78.5627 10.5549 79.0823 11.5664C79.5497 12.4182 80.2136 13.1453 81.0183 13.6868C81.8441 14.2335 82.7375 14.6696 83.6758 14.9842C84.6191 15.3055 85.5812 15.5682 86.5566 15.7709C87.5116 15.9689 88.3905 16.1564 89.1933 16.3336C89.8637 16.4644 90.5144 16.6815 91.1294 16.9796C91.3385 17.0639 91.5189 17.2071 91.6488 17.392C91.7786 17.5769 91.8524 17.7956 91.8612 18.0216C91.8631 18.1568 91.8363 18.2908 91.7826 18.4147C91.7289 18.5387 91.6495 18.6498 91.5498 18.7406C91.2621 18.9764 90.919 19.1342 90.5532 19.1991C89.9377 19.3179 89.3113 19.3703 88.6847 19.3554C87.2788 19.3451 85.8812 19.1382 84.5323 18.7406C83.1717 18.3628 81.8639 17.8149 80.6394 17.1099L77.9663 23.1327C79.4357 23.9778 81.025 24.5927 82.6793 24.9562C84.6233 25.4291 86.6169 25.6652 88.6172 25.6596C90.7794 25.7304 92.932 25.3415 94.934 24.5186C96.4525 23.8874 97.7663 22.8448 98.7283 21.5072C99.5628 20.2966 100.007 18.858 99.9999 17.386C100.039 16.2654 99.7867 15.154 99.2681 14.161Z" fill="#333333"/>
<path d="M0.129761 46.8489H2.03986V41.42H8.74598V39.7684H2.03986V35.095H9.56607V33.4226H0.129761V46.8489Z" fill="#333333"/>
<path d="M17.492 33.4226H15.5819V46.8437H17.492V33.4226Z" fill="#333333"/>
<path d="M22.9004 35.095H27.4836V46.8489H29.3729V35.095H33.9561V33.4226H22.9004V35.095Z" fill="#333333"/>
<path d="M48.9515 43.4259L40.9322 33.4226H39.3646V46.8489H41.2747V36.8456L49.2992 46.8489H50.8616V33.4226H48.9515V43.4259Z" fill="#333333"/>
<path d="M60.111 40.8469H66.812V39.2162H60.111V35.095H67.6372V33.4226H58.2009V46.8489H67.902V45.1765H60.111V40.8469Z" fill="#333333"/>
<path d="M81.8021 40.3832C81.2987 40.107 80.7659 39.8886 80.2138 39.732C79.6325 39.5652 79.0563 39.4141 78.4854 39.2839C77.9591 39.1591 77.4394 39.0078 76.9282 38.8306C76.4981 38.6906 76.1021 38.4617 75.7656 38.1585C75.6141 38.0134 75.4955 37.8374 75.4176 37.6424C75.3397 37.4474 75.3043 37.2378 75.314 37.0279C75.3109 36.6434 75.429 36.2678 75.6514 35.9547C75.9168 35.6044 76.2772 35.3385 76.6895 35.1888C77.284 34.9785 77.9124 34.8813 78.5425 34.9022C79.1686 34.9054 79.7916 34.9912 80.3955 35.1575C81.0428 35.3352 81.6566 35.6186 82.2122 35.9963L82.8402 34.4333C82.2325 34.028 81.5602 33.7301 80.8523 33.5528C80.0994 33.3474 79.3226 33.244 78.5425 33.2454C77.5511 33.2101 76.5636 33.3877 75.6462 33.7664C74.9622 34.058 74.3791 34.5455 73.9697 35.1679C73.618 35.7404 73.4378 36.4024 73.4506 37.0748C73.4246 37.69 73.576 38.2997 73.8866 38.8306C74.1792 39.2807 74.5764 39.6526 75.0441 39.9143C75.5474 40.1896 76.078 40.4114 76.6272 40.576C77.2085 40.7479 77.7847 40.899 78.3608 41.0241C78.889 41.1415 79.4091 41.2929 79.918 41.4773C80.3481 41.6198 80.744 41.8505 81.0806 42.1546C81.2311 42.2971 81.3493 42.4704 81.4273 42.6628C81.5052 42.8552 81.541 43.0621 81.5322 43.2696C81.5322 43.6448 81.4121 44.0101 81.1896 44.3116C80.9125 44.6573 80.5409 44.9144 80.1204 45.0514C79.5086 45.2478 78.8678 45.3377 78.2259 45.3172C77.3858 45.32 76.5523 45.1699 75.7656 44.8743C75.0529 44.6274 74.3914 44.2512 73.8139 43.7646L73.0977 45.3276C73.7349 45.8859 74.4834 46.3015 75.2932 46.5467C76.2355 46.8613 77.2225 47.0197 78.2155 47.0156C79.2135 47.0493 80.2074 46.8718 81.1325 46.4946C81.826 46.2051 82.4197 45.7178 82.8402 45.0931C83.2035 44.5317 83.3964 43.8765 83.3956 43.2071C83.4192 42.5997 83.2659 41.9986 82.9544 41.4773C82.6644 41.0242 82.269 40.6487 81.8021 40.3832Z" fill="#333333"/>
<path d="M96.9843 40.3832C96.4913 40.108 95.969 39.8895 95.4272 39.732C94.8458 39.5653 94.2697 39.4142 93.6987 39.2839C93.1722 39.1598 92.6525 39.0085 92.1416 38.8306C91.711 38.6918 91.3146 38.4627 90.9789 38.1585C90.8275 38.0135 90.7088 37.8375 90.6309 37.6424C90.553 37.4474 90.5177 37.2379 90.5273 37.0279C90.514 36.6451 90.6212 36.2677 90.8336 35.9495C91.0979 35.5982 91.4587 35.332 91.8717 35.1836C92.4662 34.9733 93.0946 34.8761 93.7247 34.897C94.3508 34.9002 94.9738 34.986 95.5777 35.1523C96.2237 35.3291 96.8359 35.6125 97.3892 35.9911L98.0224 34.4281C97.4094 34.0327 96.7336 33.7454 96.0241 33.5789C95.2712 33.3738 94.4944 33.2704 93.7143 33.2715C92.7229 33.2362 91.7355 33.4138 90.818 33.7925C90.1326 34.084 89.5478 34.5714 89.1363 35.194C88.7868 35.7674 88.6068 36.4287 88.6172 37.1009C88.5928 37.7166 88.746 38.3263 89.0584 38.8567C89.351 39.3068 89.7482 39.6787 90.2159 39.9404C90.7192 40.2157 91.2498 40.4375 91.799 40.6021C92.3803 40.774 92.9565 40.9251 93.5274 41.0501C94.0557 41.1671 94.5759 41.3185 95.0846 41.5034C95.5147 41.6459 95.9106 41.8765 96.2472 42.1807C96.3977 42.3232 96.516 42.4965 96.5939 42.6889C96.6718 42.8812 96.7076 43.0882 96.6988 43.2957C96.6988 43.6709 96.5787 44.0362 96.3562 44.3377C96.0791 44.6834 95.7075 44.9405 95.287 45.0775C94.6751 45.2735 94.0344 45.3633 93.3925 45.3432C92.5508 45.3456 91.7156 45.1956 90.927 44.9004C90.2158 44.6535 89.556 44.2773 88.9806 43.7906L88.285 45.3276C88.9223 45.8859 89.6708 46.3015 90.4806 46.5467C91.4229 46.8613 92.4099 47.0197 93.4029 47.0156C94.4009 47.0493 95.3948 46.8718 96.3199 46.4946C97.0134 46.2051 97.6071 45.7178 98.0276 45.0931C98.3909 44.5317 98.5838 43.8765 98.583 43.2071C98.6066 42.5997 98.4533 41.9986 98.1418 41.4773C97.8499 41.024 97.4527 40.6485 96.9843 40.3832Z" fill="#333333"/>
<path d="M16.0905 18.9021C16.051 18.9022 16.0128 18.8872 15.9839 18.8601C15.955 18.833 15.9374 18.7959 15.9348 18.7562V16.6409C15.9361 16.6013 15.9524 16.5636 15.9803 16.5356C16.0083 16.5075 16.0458 16.4912 16.0853 16.4899H23.8763C23.701 15.8316 23.3995 15.214 22.9887 14.6715C22.1655 13.601 21.0515 12.7923 19.781 12.3426L19.5785 12.2749C20.5117 11.8109 21.3212 11.1304 21.9402 10.2899C22.633 9.32456 22.9971 8.16064 22.9783 6.97106C22.984 6.06356 22.7662 5.1687 22.3442 4.36609C21.9222 3.56348 21.3091 2.87798 20.5595 2.37058C18.9505 1.16705 16.4694 0.562683 13.0852 0.562683H0V25.0917H13.7652C17.139 25.0917 19.7048 24.4977 21.4627 23.3098C22.2149 22.837 22.8432 22.19 23.2948 21.4231C23.7464 20.6561 24.0081 19.7916 24.0579 18.9021H16.0905ZM8.10236 6.34065H11.9381C12.6445 6.28539 13.3512 6.44323 13.9676 6.79392C14.1847 6.94704 14.3592 7.15328 14.4745 7.39309C14.5899 7.6329 14.6423 7.89832 14.6268 8.16417C14.6396 8.42744 14.5859 8.68969 14.4707 8.92653C14.3554 9.16336 14.1824 9.3671 13.9676 9.51879C13.356 9.8827 12.6467 10.0466 11.9381 9.98769H8.10236V6.34065ZM7.26669 18.3394C7.26671 18.3786 7.25157 18.4163 7.22445 18.4445C7.19734 18.4727 7.16037 18.4892 7.12135 18.4905H5.63687C5.59695 18.4905 5.55867 18.4746 5.53044 18.4463C5.50221 18.4179 5.48635 18.3795 5.48635 18.3394V17.0525C5.48566 17.032 5.489 17.0115 5.49619 16.9923C5.50338 16.9731 5.51428 16.9555 5.52826 16.9405C5.54224 16.9255 5.55903 16.9134 5.57766 16.9049C5.5963 16.8964 5.61642 16.8917 5.63687 16.891H7.11097C7.1312 16.8917 7.1511 16.8964 7.16946 16.905C7.18782 16.9135 7.20428 16.9257 7.21785 16.9408C7.23142 16.9558 7.24182 16.9735 7.24842 16.9927C7.25503 17.0119 7.25771 17.0323 7.25631 17.0525L7.26669 18.3394ZM10.0384 19.5325C10.0384 19.7757 9.94216 20.009 9.77084 20.1809C9.59953 20.3529 9.36717 20.4495 9.12488 20.4495H8.86536C8.62308 20.4495 8.39072 20.3529 8.2194 20.1809C8.04808 20.009 7.95183 19.7757 7.95183 19.5325V15.8855C7.95182 15.6413 8.04773 15.407 8.21876 15.2334C8.38979 15.0598 8.62213 14.9608 8.86536 14.9581H9.12488C9.36812 14.9608 9.60046 15.0598 9.77148 15.2334C9.94251 15.407 10.0384 15.6413 10.0384 15.8855V19.5325ZM12.6337 20.71C12.6337 20.9532 12.5374 21.1864 12.3661 21.3584C12.1948 21.5304 11.9624 21.627 11.7201 21.627H11.4762C11.3551 21.6284 11.2349 21.6057 11.1226 21.5603C11.0103 21.5149 10.908 21.4476 10.8217 21.3624C10.7353 21.2772 10.6666 21.1757 10.6195 21.0637C10.5724 20.9518 10.5478 20.8316 10.5471 20.71V14.682C10.5478 14.5604 10.5724 14.4402 10.6195 14.3282C10.6666 14.2163 10.7353 14.1148 10.8217 14.0295C10.908 13.9443 11.0103 13.8771 11.1226 13.8317C11.2349 13.7863 11.3551 13.7636 11.4762 13.765H11.7201C11.9624 13.765 12.1948 13.8616 12.3661 14.0336C12.5374 14.2055 12.6337 14.4388 12.6337 14.682V20.71ZM15.2549 21.6426C15.2549 21.8858 15.1586 22.119 14.9873 22.291C14.816 22.463 14.5836 22.5596 14.3413 22.5596H14.0818C13.8395 22.5596 13.6072 22.463 13.4358 22.291C13.2645 22.119 13.1683 21.8858 13.1683 21.6426V13.7546C13.1683 13.6342 13.1919 13.5149 13.2378 13.4037C13.2837 13.2924 13.351 13.1913 13.4358 13.1062C13.5207 13.021 13.6214 12.9535 13.7322 12.9074C13.843 12.8613 13.9618 12.8376 14.0818 12.8376H14.3413C14.5836 12.8376 14.816 12.9342 14.9873 13.1062C15.1586 13.2781 15.2549 13.5114 15.2549 13.7546V21.6426Z" fill="#333333"/>
<path d="M75.1376 23.3098C75.9731 22.784 76.6564 22.0472 77.1191 21.1731C77.5818 20.299 77.8078 19.3183 77.7744 18.329C77.8127 17.0207 77.4144 15.7371 76.6428 14.682C75.8176 13.6136 74.7043 12.8053 73.4351 12.3531L73.2275 12.2853C74.1616 11.8229 74.9715 11.1421 75.5892 10.3003C76.282 9.33498 76.6461 8.17106 76.6273 6.98148C76.6369 6.07355 76.4224 5.17734 76.0031 4.37281C75.5838 3.56827 74.9726 2.88041 74.2241 2.37058C72.6098 1.16705 70.1288 0.562683 66.7446 0.562683H53.6749V16.4899H60.0073C60.0468 16.4912 60.0844 16.5075 60.1123 16.5356C60.1403 16.5636 60.1566 16.6013 60.1578 16.6409V18.7562C60.1578 18.7963 60.142 18.8347 60.1138 18.8631C60.0855 18.8914 60.0472 18.9073 60.0073 18.9073H53.6749V25.0917H67.4453C70.8157 25.0917 73.3798 24.4977 75.1376 23.3098ZM68.8363 17.0578C68.8356 17.0363 68.8393 17.015 68.8471 16.9951C68.855 16.9752 68.8668 16.9571 68.8819 16.9419C68.897 16.9268 68.915 16.9149 68.9348 16.9071C68.9547 16.8992 68.9759 16.8955 68.9973 16.8962H70.461C70.4814 16.8969 70.5015 16.9016 70.5202 16.9101C70.5388 16.9186 70.5556 16.9307 70.5696 16.9457C70.5836 16.9607 70.5945 16.9783 70.6017 16.9975C70.6088 17.0168 70.6122 17.0372 70.6115 17.0578V18.3394C70.6115 18.3795 70.5956 18.4179 70.5674 18.4463C70.5392 18.4746 70.5009 18.4905 70.461 18.4905H68.9973C68.9768 18.4912 68.9564 18.4879 68.9373 18.4806C68.9181 18.4734 68.9005 18.4625 68.8856 18.4484C68.8707 18.4344 68.8586 18.4176 68.8502 18.3989C68.8417 18.3802 68.837 18.36 68.8363 18.3394V17.0578ZM62.9296 21.6478C62.9296 21.7682 62.9059 21.8875 62.86 21.9987C62.8141 22.11 62.7468 22.2111 62.662 22.2962C62.5772 22.3814 62.4765 22.4489 62.3656 22.495C62.2548 22.5411 62.136 22.5648 62.016 22.5648H61.7669C61.6461 22.5662 61.5262 22.5435 61.4141 22.498C61.3021 22.4525 61.2002 22.3852 61.1142 22.2999C61.0283 22.2146 60.9601 22.1131 60.9135 22.0012C60.867 21.8892 60.843 21.7691 60.843 21.6478V13.7546C60.8423 13.6331 60.8658 13.5127 60.9121 13.4004C60.9584 13.2881 61.0266 13.1863 61.1127 13.1009C61.1987 13.0155 61.301 12.9482 61.4133 12.9029C61.5257 12.8577 61.6459 12.8355 61.7669 12.8376H62.016C62.136 12.8376 62.2548 12.8613 62.3656 12.9074C62.4765 12.9535 62.5772 13.021 62.662 13.1062C62.7468 13.1913 62.8141 13.2924 62.86 13.4037C62.9059 13.5149 62.9296 13.6342 62.9296 13.7546V21.6478ZM65.5248 20.7152C65.5248 20.9584 65.4286 21.1916 65.2573 21.3636C65.0859 21.5356 64.8536 21.6322 64.6113 21.6322H64.3621C64.1199 21.6322 63.8875 21.5356 63.7162 21.3636C63.5449 21.1916 63.4486 20.9584 63.4486 20.7152V14.682C63.4486 14.4388 63.5449 14.2055 63.7162 14.0336C63.8875 13.8616 64.1199 13.765 64.3621 13.765H64.6217C64.864 13.765 65.0963 13.8616 65.2676 14.0336C65.439 14.2055 65.5352 14.4388 65.5352 14.682L65.5248 20.7152ZM61.7669 9.98769V6.34065H65.6131C66.321 6.28625 67.0292 6.444 67.6477 6.79392C67.8638 6.94763 68.0373 7.15414 68.1518 7.39391C68.2662 7.63368 68.3178 7.89879 68.3017 8.16417C68.3151 8.42697 68.2622 8.68891 68.1479 8.92571C68.0336 9.16251 67.8615 9.36651 67.6477 9.51879C67.034 9.88215 66.3232 10.0459 65.6131 9.98769H61.7669ZM66.9574 20.4495C66.7151 20.4495 66.4828 20.3529 66.3114 20.1809C66.1401 20.009 66.0439 19.7757 66.0439 19.5325V15.8855C66.0404 15.7624 66.0614 15.6399 66.1056 15.525C66.1499 15.4101 66.2165 15.3053 66.3015 15.2165C66.3865 15.1278 66.4883 15.0569 66.6009 15.0081C66.7135 14.9592 66.8347 14.9334 66.9574 14.932H67.2169C67.4611 14.9334 67.6947 15.0317 67.8669 15.2055C68.039 15.3793 68.1356 15.6144 68.1356 15.8594V19.5325C68.1356 19.6534 68.1118 19.7731 68.0656 19.8846C68.0194 19.9962 67.9516 20.0976 67.8662 20.1828C67.7809 20.268 67.6795 20.3354 67.5681 20.3812C67.4567 20.427 67.3373 20.4502 67.2169 20.4495H66.9574Z" fill="#333333"/>
</g>
<defs>
<clipPath id="clip0_2103_836">
<rect width="100" height="47" fill="white"/>
</clipPath>
</defs>
</svg>
