<svg width="100" height="30" viewBox="0 0 100 30" fill="none" xmlns="http://www.w3.org/2000/svg">
<g clip-path="url(#clip0_2103_842)">
<path d="M49.8413 11.6418C49.776 11.536 49.7256 11.4215 49.6915 11.3015C49.6561 11.1669 49.6354 11.0288 49.6298 10.8895C49.6298 10.7463 49.6298 10.594 49.6298 10.4328V7.74626C49.6473 7.28126 49.4969 6.82581 49.2069 6.46567C48.9037 6.12129 48.5182 5.86219 48.0877 5.71343C47.0908 5.3675 46.0092 5.3675 45.0123 5.71343C44.5831 5.86782 44.2047 6.14071 43.9196 6.50149C43.6428 6.86787 43.4996 7.32043 43.5142 7.78209H45.2767C45.2683 7.64618 45.2948 7.51039 45.3535 7.38798C45.4122 7.26556 45.5011 7.16069 45.6115 7.08358C45.9002 6.91548 46.2312 6.83761 46.5632 6.8597C46.8688 6.84655 47.1725 6.91445 47.4444 7.05671C47.5439 7.10963 47.6271 7.18952 47.6846 7.28753C47.7422 7.38553 47.7719 7.49782 47.7705 7.61194C47.7705 7.75522 47.6471 7.84477 47.3828 7.90746C47.1184 7.97015 46.7042 8.0597 46.0081 8.0597C45.5652 8.09889 45.1295 8.19828 44.7127 8.35522C44.3406 8.47702 44.0084 8.7 43.7522 9C43.4993 9.30066 43.3699 9.68864 43.3909 10.0836C43.3805 10.4436 43.4823 10.7977 43.6817 11.0955C43.8963 11.3774 44.1828 11.5942 44.51 11.7224C44.8933 11.8796 45.3041 11.9558 45.7173 11.9463C46.0809 11.9471 46.4428 11.8959 46.7923 11.794C47.1103 11.7089 47.4093 11.563 47.6736 11.3642C47.7612 11.2958 47.841 11.2177 47.9115 11.1313L47.9644 11.3373C48.0026 11.4428 48.0497 11.5446 48.1054 11.6418C48.1449 11.702 48.1891 11.7589 48.2375 11.8119H50C49.9407 11.7618 49.8874 11.7047 49.8413 11.6418ZM47.5854 9.94925C47.4371 10.1692 47.2289 10.3404 46.9862 10.4418C46.732 10.548 46.4591 10.5998 46.1843 10.594C45.9277 10.6103 45.6716 10.5546 45.4441 10.4328C45.3627 10.383 45.2959 10.3118 45.251 10.2267C45.206 10.1416 45.1844 10.0458 45.1885 9.94925C45.1835 9.84597 45.2095 9.74358 45.263 9.65563C45.3165 9.56768 45.395 9.49831 45.4882 9.45671C45.7691 9.34048 46.0667 9.27094 46.3694 9.25074C46.7042 9.25074 47.0391 9.17015 47.3739 9.10746L47.8146 9.00895V9.06268C47.832 9.37535 47.7518 9.68563 47.5854 9.94925Z" fill="#FCAE04"/>
<path d="M53.0842 21.206C53.0835 21.4768 53.0296 21.7447 52.9256 21.994C52.8302 22.2381 52.6756 22.4538 52.4762 22.6209C52.2728 22.7901 52.0163 22.8791 51.7536 22.8716C51.5107 22.8858 51.2705 22.8129 51.075 22.6657C50.9142 22.5305 50.8025 22.3445 50.7578 22.1373C50.6961 21.9007 50.6664 21.6567 50.6697 21.4119V18.0179H48.9073V21.8955C48.906 22.1968 48.9385 22.4972 49.0042 22.791C49.0632 23.0836 49.1801 23.3608 49.3479 23.606C49.5172 23.8561 49.7481 24.0568 50.0176 24.1881C50.3578 24.3435 50.7287 24.4171 51.1015 24.403C51.4651 24.4097 51.8258 24.3364 52.1589 24.1881C52.4636 24.054 52.7347 23.852 52.952 23.597C53.0165 23.5178 53.0754 23.434 53.1283 23.3463V24.2866H54.8907V18.0179H53.1283L53.0842 21.206Z" fill="#FCAE04"/>
<path d="M42.2189 9.85074C42.3555 9.48124 42.4271 9.09021 42.4304 8.69552H40.668C40.665 8.93585 40.6264 9.17435 40.5534 9.40298C40.4803 9.61819 40.3699 9.81836 40.2274 9.99403C40.0858 10.172 39.9046 10.3132 39.6987 10.406C39.475 10.5105 39.231 10.5626 38.9849 10.5582C38.6265 10.5595 38.2773 10.4433 37.9891 10.2269C37.6711 9.96545 37.4328 9.61762 37.3018 9.22388C37.0994 8.66197 37.0008 8.06693 37.011 7.46865C36.9933 6.89111 37.0768 6.31497 37.2577 5.76716C37.391 5.37712 37.6291 5.03278 37.9451 4.77313C38.2088 4.5847 38.5182 4.47338 38.8399 4.45128C39.1615 4.42917 39.4829 4.49713 39.7692 4.64776C39.9945 4.77833 40.185 4.96276 40.3243 5.18507C40.4682 5.41839 40.5585 5.68161 40.5887 5.95522C40.5978 6.06846 40.5978 6.18228 40.5887 6.29552H42.3511C42.3507 6.03918 42.3212 5.78375 42.263 5.53432C42.1761 5.09462 42.0087 4.67542 41.7695 4.2985C41.4714 3.89489 41.0853 3.56692 40.6416 3.3403C40.1114 3.0824 39.5284 2.95654 38.9408 2.97313C38.236 2.95438 37.5418 3.15086 36.948 3.53719C36.3542 3.92352 35.8881 4.48194 35.6098 5.1403C35.301 5.87553 35.1508 6.66946 35.1692 7.46865C35.151 8.27362 35.3012 9.07335 35.6098 9.81492C35.885 10.4598 36.3341 11.0124 36.9052 11.409C37.5102 11.807 38.2206 12.007 38.9408 11.9821C39.491 11.993 40.0364 11.8766 40.5358 11.6418C40.9494 11.4587 41.3192 11.1868 41.6197 10.8448C41.8765 10.5526 42.0794 10.2159 42.2189 9.85074Z" fill="#FCAE04"/>
<path d="M73.1406 8.87464C73.1413 8.65724 73.1679 8.44073 73.2199 8.22986C73.2728 8.0196 73.3656 7.82186 73.4931 7.64777C73.6273 7.46015 73.8104 7.31437 74.0218 7.22687C74.2676 7.11275 74.536 7.05759 74.8061 7.06568C74.9641 7.06015 75.1219 7.08133 75.2731 7.12837C75.3524 7.15386 75.4291 7.18684 75.5022 7.22687L75.7842 5.57911C75.7009 5.53636 75.6118 5.50619 75.5199 5.48956C75.3257 5.44921 75.1276 5.43119 74.9295 5.43583C74.6288 5.42752 74.3294 5.47925 74.0482 5.58807C73.8084 5.68258 73.5919 5.8293 73.4138 6.01792C73.2996 6.13733 73.1991 6.26952 73.1142 6.41195V5.51643H71.3782V11.7851H73.1406V8.87464Z" fill="#FCAE04"/>
<path d="M47.5855 23.7672C47.5462 23.6362 47.5225 23.5009 47.515 23.3642C47.515 23.2209 47.515 23.0597 47.515 22.8985V20.212C47.534 19.7467 47.3834 19.2907 47.092 18.9314C46.7951 18.5797 46.4075 18.3191 45.9728 18.1791C45.4981 18.004 44.9974 17.9131 44.4924 17.9105C43.9569 17.9002 43.4244 17.9944 42.9238 18.1881C42.4921 18.3423 42.1108 18.615 41.8223 18.9761C41.5519 19.339 41.4092 19.7837 41.417 20.2388H43.1794C43.1701 20.1037 43.1952 19.9685 43.2523 19.8461C43.3094 19.7238 43.3966 19.6185 43.5054 19.5403C43.7941 19.3722 44.1252 19.2943 44.4571 19.3164C44.7773 19.2975 45.0967 19.3655 45.3824 19.5134C45.4826 19.5655 45.5663 19.6453 45.6239 19.7434C45.6816 19.8416 45.7109 19.9543 45.7085 20.0687C45.7085 20.203 45.5763 20.3015 45.3207 20.3552C45.0652 20.409 44.5893 20.4717 43.9108 20.5433C43.469 20.584 43.0339 20.6802 42.6154 20.8299C42.2488 20.9629 41.9192 21.1842 41.6549 21.4746C41.4061 21.7811 41.2774 22.1702 41.2936 22.5672C41.2859 22.9254 41.3909 23.2767 41.5932 23.5702C41.8047 23.8574 42.0919 24.0778 42.4215 24.206C42.8038 24.3551 43.2106 24.4281 43.62 24.4209C43.9833 24.4259 44.3454 24.3776 44.6951 24.2776C45.0124 24.1864 45.3109 24.0378 45.5763 23.8388C45.6619 23.7681 45.7415 23.6902 45.8142 23.606C45.8277 23.6786 45.8453 23.7504 45.8671 23.8209C45.9016 23.9279 45.949 24.0302 46.0081 24.1254C46.0449 24.1852 46.0861 24.2421 46.1315 24.2955H47.8939C47.8389 24.2372 47.7888 24.1743 47.7441 24.1075C47.675 24.0026 47.6215 23.8879 47.5855 23.7672ZM45.5234 22.3881C45.37 22.6089 45.1596 22.7825 44.9154 22.8896C44.6628 22.9907 44.3937 23.0424 44.1223 23.0418C43.8656 23.0591 43.6093 23.0032 43.3821 22.8806C43.2999 22.8293 43.2329 22.7566 43.1879 22.6699C43.1429 22.5833 43.1217 22.4859 43.1265 22.3881C43.1213 22.2871 43.1464 22.1868 43.1983 22.1005C43.2502 22.0142 43.3265 21.9459 43.4173 21.9045C43.6972 21.7849 43.9953 21.7152 44.2985 21.6985C44.6334 21.6985 44.9683 21.6179 45.3031 21.5552L45.7437 21.4567V21.4925C45.7621 21.8069 45.6852 22.1195 45.5234 22.3881Z" fill="#FCAE04"/>
<path d="M37.2136 15.5731H35.3983V24.3045H40.4124V22.8089H37.2136V15.5731Z" fill="#FCAE04"/>
<path d="M54.5294 5.43583C54.2287 5.42752 53.9293 5.47924 53.6482 5.58806C53.4084 5.68258 53.1918 5.82929 53.0137 6.01791C52.8995 6.13733 52.799 6.26952 52.7141 6.41194V5.51642H50.9341V11.7851H52.7494V8.87463C52.7644 8.65539 52.8058 8.43884 52.8728 8.22985C52.9219 8.01823 53.015 7.81974 53.1459 7.64777C53.2729 7.46399 53.4465 7.31855 53.6482 7.22687C53.894 7.11274 54.1624 7.05759 54.4325 7.06568C54.5877 7.05942 54.7427 7.08063 54.8907 7.12836C54.9732 7.15257 55.053 7.18559 55.1287 7.22687L55.4283 5.57911C55.3449 5.53636 55.2558 5.50619 55.1639 5.48956C54.9553 5.44574 54.7423 5.4277 54.5294 5.43583Z" fill="#FCAE04"/>
<path d="M83.7856 18.2686C83.3579 18.0256 82.8745 17.9021 82.3845 17.9104C82.0256 17.9129 81.671 17.9896 81.3423 18.1359C81.0135 18.2821 80.7175 18.4949 80.4723 18.7612V18.0358H78.657V26.8657H80.4723V23.5522C80.6369 23.7422 80.8267 23.9079 81.0363 24.0448C81.4364 24.312 81.9057 24.4522 82.3845 24.4477C82.8818 24.4517 83.3713 24.3219 83.8033 24.0716C84.2513 23.8085 84.6153 23.4199 84.8519 22.9522C85.1276 22.3977 85.2639 21.7823 85.2484 21.1612C85.274 20.538 85.1339 19.9194 84.8431 19.3701C84.6002 18.9087 84.2335 18.5268 83.7856 18.2686ZM82.9044 22.4328C82.6286 22.7055 82.2582 22.8567 81.8734 22.8537C81.6306 22.8515 81.3918 22.7901 81.1773 22.6746C80.9588 22.5569 80.7737 22.3843 80.6397 22.1731C80.4959 21.9433 80.4223 21.6753 80.4282 21.403V20.8657C80.4213 20.5932 80.4949 20.3249 80.6397 20.0955C80.7637 19.9153 80.9241 19.7639 81.1102 19.6516C81.2962 19.5392 81.5037 19.4684 81.7188 19.4438C81.9338 19.4192 82.1516 19.4415 82.3575 19.5091C82.5635 19.5767 82.7529 19.688 82.9132 19.8358C83.0713 20.0091 83.1914 20.2143 83.2658 20.4381C83.3403 20.6619 83.3673 20.8992 83.345 21.1343C83.3725 21.3669 83.3514 21.6028 83.2831 21.8266C83.2147 22.0503 83.1007 22.2569 82.9485 22.4328H82.9044Z" fill="#FCAE04"/>
<path d="M75.0264 17.9104C74.5552 17.8997 74.0897 18.0172 73.6782 18.2507C73.391 18.4205 73.1419 18.6492 72.9468 18.9224V15.0448H71.1843V24.3045H72.9468V20.9194C72.9519 20.6509 73.0183 20.3873 73.1406 20.1492C73.2395 19.9386 73.3994 19.7636 73.5988 19.6478C73.8244 19.5194 74.0808 19.4573 74.3391 19.4687C74.5164 19.4456 74.6965 19.4699 74.8618 19.5389C75.0271 19.608 75.1719 19.7196 75.282 19.8627C75.4697 20.2005 75.5583 20.5858 75.5375 20.9731V24.3045H77.2999V20.4627C77.338 19.7834 77.1347 19.1129 76.7272 18.5731C76.509 18.3424 76.2435 18.1634 75.9496 18.0489C75.6556 17.9343 75.3404 17.8871 75.0264 17.9104Z" fill="#FCAE04"/>
<path d="M92.4568 23.7672C92.4175 23.6362 92.3938 23.5009 92.3863 23.3642C92.3863 23.2209 92.3863 23.0597 92.3863 22.8985V20.2119C92.4054 19.7467 92.2548 19.2907 91.9633 18.9313C91.6679 18.5821 91.2839 18.3219 90.853 18.1791C90.3666 18.003 89.8536 17.915 89.3373 17.9194C88.8047 17.9089 88.275 18.0032 87.7776 18.197C87.3458 18.3512 86.9645 18.624 86.6761 18.9851C86.3979 19.3507 86.2545 19.8038 86.2707 20.2657H88.0331C88.0238 20.1306 88.049 19.9953 88.1061 19.873C88.1632 19.7506 88.2503 19.6453 88.3592 19.5672C88.6478 19.3991 88.9789 19.3212 89.3109 19.3433C89.6165 19.3301 89.9202 19.398 90.1921 19.5403C90.2932 19.592 90.3782 19.6713 90.4373 19.7694C90.4965 19.8675 90.5275 19.9805 90.527 20.0955C90.527 20.2298 90.3948 20.3284 90.1392 20.3821C89.8837 20.4358 89.4078 20.4985 88.7293 20.5701C88.2875 20.6108 87.8524 20.7071 87.4339 20.8567C87.0661 20.9875 86.7361 21.2091 86.4734 21.5015C86.2478 21.7999 86.1204 22.163 86.1093 22.5391C86.0982 22.9153 86.204 23.2854 86.4117 23.597C86.6292 23.8655 86.9161 24.067 87.24 24.1791C87.6253 24.3281 88.0351 24.401 88.4473 24.394C88.8105 24.3984 89.1725 24.3501 89.5224 24.2507C89.839 24.1576 90.1371 24.0091 90.4036 23.8119C90.4872 23.739 90.5666 23.6612 90.6415 23.5791C90.655 23.6517 90.6726 23.7235 90.6944 23.794C90.7252 23.9025 90.7728 24.0052 90.8354 24.0985C90.8722 24.1583 90.9134 24.2152 90.9587 24.2687H92.7212C92.6636 24.2127 92.6133 24.1495 92.5714 24.0806C92.5199 23.9817 92.4813 23.8763 92.4568 23.7672ZM90.3595 22.3881C90.2061 22.6089 89.9957 22.7824 89.7515 22.8895C89.4989 22.9907 89.2298 23.0424 88.9584 23.0418C88.6989 23.0593 88.4396 23.0035 88.2094 22.8806C88.1282 22.8289 88.0624 22.7558 88.0189 22.669C87.9754 22.5823 87.956 22.4852 87.9626 22.3881C87.9575 22.2871 87.9825 22.1868 88.0344 22.1005C88.0863 22.0142 88.1626 21.9459 88.2534 21.9045C88.5333 21.7849 88.8314 21.7152 89.1346 21.6985C89.4695 21.6985 89.8044 21.6179 90.1392 21.5552L90.5798 21.4567V21.4925C90.5982 21.8069 90.5213 22.1195 90.3595 22.3881Z" fill="#FCAE04"/>
<path d="M98.1846 15.0448V18.7433C98.0205 18.5639 97.8339 18.4073 97.6295 18.2776C97.2237 18.025 96.757 17.8917 96.2812 17.8925C95.7768 17.8886 95.2809 18.024 94.8463 18.2843C94.4117 18.5445 94.0548 18.9198 93.8138 19.3701C93.523 19.9194 93.383 20.538 93.4085 21.1612C93.3931 21.7823 93.5293 22.3977 93.805 22.9522C94.044 23.4181 94.4075 23.8061 94.8537 24.0716C95.2884 24.3231 95.781 24.4529 96.2812 24.4478C96.7629 24.4535 97.2354 24.3132 97.6383 24.0448C97.8398 23.9112 98.0235 23.7517 98.1846 23.5701V24.3045H99.9999V15.0448H98.1846ZM97.982 22.2089C97.8482 22.4226 97.6632 22.5982 97.4444 22.7194C97.2276 22.8373 96.9854 22.8989 96.7395 22.8985C96.3547 22.9015 95.9843 22.7502 95.7084 22.4776C95.5502 22.3042 95.4293 22.0991 95.3535 21.8755C95.2776 21.652 95.2484 21.4148 95.2678 21.1791C95.2468 20.9433 95.2752 20.7057 95.3511 20.4818C95.4271 20.258 95.5488 20.0531 95.7084 19.8806C95.942 19.6606 96.2372 19.5199 96.5531 19.4782C96.8689 19.4365 97.1897 19.4957 97.4709 19.6478C97.6887 19.7623 97.8738 19.9319 98.0084 20.1403C98.1532 20.3697 98.2269 20.638 98.2199 20.9104V21.4209C98.2108 21.6864 98.1284 21.944 97.982 22.1642V22.2089Z" fill="#FCAE04"/>
<path d="M61.0769 5.84776C60.526 5.58245 59.9241 5.44482 59.3145 5.44482C58.7049 5.44482 58.1029 5.58245 57.552 5.84776C57.054 6.10707 56.6385 6.50452 56.3536 6.99403C56.0636 7.51833 55.9176 8.11214 55.9306 8.71343C55.9209 9.30752 56.0637 9.89393 56.3448 10.4149C56.6282 10.9047 57.0401 11.3047 57.5344 11.5701C58.0793 11.8534 58.6849 11.995 59.2968 11.9821C59.7526 11.9914 60.2071 11.931 60.6451 11.803C61.0167 11.7042 61.3685 11.5406 61.6849 11.3194C61.9425 11.1392 62.1614 10.9076 62.3282 10.6388C62.4667 10.3985 62.5482 10.1287 62.5661 9.85074H60.8037C60.7915 9.94253 60.755 10.0292 60.698 10.1015C60.6338 10.1992 60.5497 10.2817 60.4512 10.3433C60.3167 10.422 60.1711 10.4794 60.0194 10.5134C59.8146 10.5634 59.6044 10.5875 59.3938 10.5851C59.0675 10.5942 58.7448 10.5138 58.4597 10.3522C58.2082 10.1966 58.011 9.96487 57.8957 9.68955C57.832 9.54703 57.7875 9.39641 57.7635 9.24179H62.6543C62.6543 9.19701 62.6543 9.12537 62.6543 9.03582C62.6543 8.94626 62.6543 8.85671 62.6543 8.74925C62.666 8.14353 62.5234 7.54502 62.2401 7.01194C61.9697 6.51896 61.5661 6.11498 61.0769 5.84776ZM58.4333 7.02985C58.7007 6.87324 59.0059 6.7957 59.3145 6.80597C59.6201 6.79282 59.9237 6.86072 60.1957 7.00298C60.3993 7.12593 60.5667 7.30222 60.6803 7.51343C60.7538 7.68638 60.7956 7.8715 60.8037 8.0597H57.7459C57.7764 7.93387 57.8177 7.81101 57.8693 7.69253C57.9835 7.41656 58.181 7.18454 58.4333 7.02985Z" fill="#FCAE04"/>
<path d="M68.664 5.84776C68.1132 5.58245 67.5112 5.44482 66.9016 5.44482C66.292 5.44482 65.69 5.58245 65.1392 5.84776C64.6411 6.10707 64.2256 6.50452 63.9407 6.99403C63.6261 7.51119 63.4555 8.10546 63.4472 8.71343C63.4375 9.30752 63.5803 9.89393 63.8614 10.4149C64.1448 10.9047 64.5567 11.3047 65.051 11.5701C65.596 11.8534 66.2015 11.995 66.8135 11.9821C67.2692 11.9914 67.7237 11.931 68.1617 11.803C68.521 11.7004 68.8606 11.5369 69.1663 11.3194C69.4239 11.1392 69.6427 10.9076 69.8096 10.6388C69.9824 10.4076 70.0973 10.1371 70.1445 9.85074H68.382C68.3698 9.94253 68.3333 10.0292 68.2763 10.1015C68.2122 10.1992 68.128 10.2817 68.0295 10.3433C67.895 10.422 67.7494 10.4794 67.5977 10.5134C67.3929 10.5634 67.1828 10.5875 66.9721 10.5851C66.6458 10.5942 66.3231 10.5138 66.038 10.3522C65.7865 10.1966 65.5893 9.96487 65.474 9.68955C65.4103 9.54703 65.3659 9.39641 65.3418 9.24179H70.2326C70.2326 9.19701 70.2326 9.12537 70.2326 9.03582C70.2326 8.94626 70.2326 8.85671 70.2326 8.74925C70.2443 8.14353 70.1017 7.54502 69.8184 7.01194C69.5504 6.5202 69.1499 6.11634 68.664 5.84776ZM66.0204 7.02985C66.2879 6.87324 66.5931 6.7957 66.9016 6.80597C67.2072 6.79282 67.5109 6.86072 67.7828 7.00298C67.9864 7.12593 68.1538 7.30222 68.2675 7.51343C68.344 7.67686 68.3917 7.85266 68.4085 8.03283H65.333C65.3635 7.90701 65.4048 7.78415 65.4564 7.66567C65.5753 7.39963 65.7723 7.17753 66.0204 7.02985Z" fill="#FCAE04"/>
<path d="M61.4294 18.206C61.0442 17.9911 60.6081 17.8888 60.1692 17.9105C59.7045 17.9037 59.2471 18.0277 58.8474 18.2687C58.5288 18.4568 58.2573 18.7173 58.0543 19.0299V18.0179H56.239V24.2866H58.0543V21.009C58.0489 20.7318 58.103 20.4567 58.2129 20.203C58.3116 19.98 58.4744 19.7927 58.68 19.6657C58.8995 19.5285 59.1538 19.46 59.4114 19.4687C59.6725 19.4517 59.9321 19.5208 60.1516 19.6657C60.3195 19.7934 60.4429 19.9722 60.5041 20.1761C60.5696 20.4091 60.6022 20.6503 60.601 20.8925V24.3045H62.3634V20.3642C62.3702 19.9216 62.2861 19.4824 62.1167 19.0746C61.9778 18.722 61.7385 18.4195 61.4294 18.206Z" fill="#FCAE04"/>
<path d="M69.2193 18.7254C68.931 18.4632 68.596 18.2595 68.2323 18.1254C67.7965 17.9707 67.3367 17.8979 66.8753 17.9104C66.2648 17.9019 65.6609 18.04 65.1128 18.3134C64.6184 18.5664 64.2056 18.958 63.9232 19.4418C63.6158 19.9547 63.4513 20.5428 63.4473 21.1433C63.4343 21.7446 63.5804 22.3384 63.8703 22.8627C64.1486 23.3588 64.5616 23.763 65.06 24.0269C65.5477 24.2679 66.0775 24.4086 66.6189 24.4409C67.1603 24.4732 67.7026 24.3964 68.2147 24.2149C68.5761 24.0816 68.9083 23.8777 69.1928 23.6149C69.4463 23.3817 69.6502 23.0983 69.7921 22.7821C69.9229 22.5021 69.9921 22.1965 69.9947 21.8866H68.2323C68.2153 22.0771 68.155 22.2611 68.0561 22.4239C67.9511 22.5969 67.7977 22.7341 67.6155 22.8179C67.38 22.9236 67.1236 22.9726 66.8664 22.9612C66.5848 22.9658 66.3073 22.8914 66.0645 22.7463C65.8232 22.593 65.6304 22.3722 65.5094 22.1104C65.3686 21.8053 65.2993 21.4712 65.3067 21.1343C65.2973 20.7972 65.3668 20.4627 65.5094 20.1582C65.6319 19.909 65.8253 19.7031 66.0645 19.5672C66.3098 19.4292 66.5861 19.3582 66.8664 19.3612C67.1092 19.3522 67.3507 19.4013 67.5714 19.5045C67.7464 19.583 67.8982 19.7064 68.012 19.8627C68.1131 20.0005 68.1823 20.1597 68.2147 20.3284C68.2183 20.3491 68.2183 20.3703 68.2147 20.391C68.219 20.4147 68.219 20.439 68.2147 20.4627H69.9771V20.4179C69.9744 20.108 69.9053 19.8024 69.7744 19.5224C69.638 19.225 69.4499 18.955 69.2193 18.7254Z" fill="#FCAE04"/>
<path d="M25.6521 0H3.74516C2.75189 0 1.79929 0.400985 1.09694 1.11474C0.394588 1.8285 1.03682e-05 2.79656 1.03682e-05 3.80597V26.0597C-0.0011486 26.5603 0.0948674 27.0561 0.28256 27.5189C0.470253 27.9817 0.745935 28.4024 1.09382 28.7567C1.4417 29.1111 1.85496 29.3922 2.30992 29.5841C2.76488 29.7759 3.2526 29.8746 3.74516 29.8746H25.6521C26.1447 29.8746 26.6324 29.7759 27.0874 29.5841C27.5423 29.3922 27.9556 29.1111 28.3034 28.7567C28.6513 28.4024 28.927 27.9817 29.1147 27.5189C29.3024 27.0561 29.3984 26.5603 29.3973 26.0597V3.80597C29.3973 2.79656 29.0027 1.8285 28.3003 1.11474C27.598 0.400985 26.6454 0 25.6521 0ZM22.7265 22.3881C22.7265 22.5401 22.6671 22.6858 22.5613 22.7933C22.4555 22.9008 22.3121 22.9612 22.1625 22.9612H6.88228C6.7327 22.9612 6.58925 22.9008 6.48349 22.7933C6.37772 22.6858 6.3183 22.5401 6.3183 22.3881V20.9731C6.31848 20.8559 6.35407 20.7414 6.42025 20.6454C6.48644 20.5493 6.58004 20.4761 6.68841 20.4358C6.69176 20.1944 6.74902 19.9569 6.85588 19.7413C6.96273 19.5257 7.11639 19.3375 7.30526 19.191C7.31674 19.0189 7.3769 18.8538 7.47852 18.7156C7.58013 18.5774 7.71887 18.4719 7.87805 18.4119C7.99654 18.3808 8.12086 18.3808 8.23935 18.4119C8.63435 17.9112 9.15938 17.5327 9.75503 17.3194L10.0987 16.8806C12.1842 14.4765 14.5518 12.3412 17.1484 10.5224C17.7741 10.6567 17.9679 11.8657 18.0296 12.0179C15.8458 13.6203 13.8079 15.4185 11.9404 17.391C12.1828 17.4784 12.4136 17.5957 12.6278 17.7403C12.7462 17.6717 12.8787 17.632 13.0147 17.6242C13.1508 17.6164 13.2868 17.6408 13.4121 17.6955C13.5277 17.7531 13.6286 17.8374 13.7066 17.9415C13.7846 18.0457 13.8376 18.1669 13.8615 18.2955C14.0175 18.259 14.1772 18.2409 14.3373 18.2418C14.6562 18.2429 14.9712 18.3129 15.2614 18.4472C15.5516 18.5815 15.8104 18.7771 16.0205 19.0209C16.201 18.9525 16.3918 18.9162 16.5844 18.9134C16.9961 18.9132 17.3918 19.0756 17.6877 19.3664C17.9837 19.6572 18.1569 20.0535 18.1706 20.4716H22.1625C22.2369 20.4704 22.3108 20.4844 22.3797 20.5128C22.4487 20.5412 22.5113 20.5834 22.5639 20.6368C22.6166 20.6903 22.6581 20.7539 22.686 20.824C22.7139 20.8941 22.7277 20.9692 22.7265 21.0448V22.3881ZM22.5062 9.30448C22.0402 9.64754 21.6503 10.0863 21.3619 10.5923C21.0734 11.0983 20.8929 11.6603 20.8319 12.2418C20.8319 13.3433 20.1269 13.5761 19.466 14.0328C18.858 13.1373 19.0959 12.2418 19.1752 11.3463C19.1855 11.0156 19.1094 10.6881 18.9546 10.3971C18.7998 10.106 18.5718 9.86192 18.294 9.68955C17.4656 9.10746 16.699 8.5791 15.7737 7.95224L17.2806 7.05672C17.2806 7.05672 17.3951 7.05672 17.4216 7.05672L18.2059 7.61194C18.3356 7.68556 18.4751 7.73984 18.62 7.77313C19.1975 7.96808 19.8082 8.04084 20.4144 7.98694C21.0206 7.93303 21.6095 7.75361 22.1449 7.4597L23.0261 8.87463L22.5062 9.30448Z" fill="#FCAE04"/>
</g>
<defs>
<clipPath id="clip0_2103_842">
<rect width="100" height="30" fill="white"/>
</clipPath>
</defs>
</svg>
