<svg width="100" height="125" viewBox="0 0 100 125" fill="none" xmlns="http://www.w3.org/2000/svg">
<g clip-path="url(#clip0_2103_838)">
<path d="M75.1862 21.3252C74.167 16.3217 71.7216 11.7181 68.1439 8.06752C64.5661 4.41691 60.008 1.87448 55.0172 0.745621C50.0264 -0.38324 44.8151 -0.0505261 40.0092 1.7038C35.2033 3.45812 31.0073 6.55945 27.925 10.6353C29.4005 11.2445 30.8224 11.9757 32.1757 12.8213C35.4366 8.78954 40.0347 6.05356 45.1399 5.10722C50.2451 4.16087 55.5213 5.06652 60.016 7.66068C64.5108 10.2549 67.9281 14.3666 69.6511 19.2539C71.374 24.1412 71.2892 29.482 69.412 34.3124C67.5347 39.1428 63.9886 43.1445 59.4137 45.5954C54.8389 48.0462 49.5366 48.7846 44.464 47.6774C39.3914 46.5702 34.8825 43.6903 31.7512 39.5575C28.6199 35.4246 27.0725 30.3111 27.3882 25.1399C27.5954 21.8741 28.5511 18.6992 30.1818 15.86C29.1622 15.4382 28.1198 15.0733 27.0596 14.767L26.4023 14.5593L26.2051 14.4937C26.0114 14.4394 25.8212 14.3737 25.6354 14.297C23.6664 18.0008 22.6323 22.1278 22.6227 26.3204C22.6937 30.3387 23.6869 34.2872 25.5258 37.8629C27.3882 41.6448 29.5793 45.2846 31.7046 48.9135C36.3716 56.7287 41.1262 64.4893 45.8589 72.2827L47.3269 74.7092C47.5168 75.019 47.7832 75.275 48.1007 75.4525C48.4182 75.6301 48.776 75.7234 49.14 75.7234C49.5039 75.7234 49.8618 75.6301 50.1793 75.4525C50.4967 75.275 50.7632 75.019 50.9531 74.7092L51.5118 73.7911C56.931 64.85 62.3576 55.9199 67.7914 47.0007C70.4232 42.9897 72.5708 38.6824 74.1893 34.1684C75.661 30.0521 76.0051 25.6185 75.1862 21.3252Z" fill="#333333"/>
<path d="M63.5408 33.2503C65.3029 29.8294 65.6643 25.8594 64.5487 22.1778C64.3647 22.2419 64.1853 22.3186 64.0119 22.4073C57.8224 26.2048 50.5071 27.7495 43.3063 26.7795C41.0829 26.3746 38.914 25.7144 36.8427 24.812C36.553 24.7314 36.2852 24.5868 36.0591 24.389C35.833 24.1911 35.6544 23.945 35.5366 23.6689C35.4188 23.3929 35.3647 23.0939 35.3784 22.7941C35.3921 22.4944 35.4732 22.2015 35.6157 21.9373C33.1398 23.6971 33.1727 25.0962 35.55 26.3751C36.5005 26.8768 37.5035 27.2727 38.5408 27.5555C43.5012 28.8956 48.6858 29.197 53.7687 28.4409C56.9659 28.1238 60.0285 26.9949 62.6644 25.1618C63.0587 24.8667 63.4312 24.5497 63.9571 24.1343C64.3405 30.3756 62.1495 35.1959 56.9676 38.2564C50.3944 42.1476 44.2375 40.9562 38.5846 36.0703C40.5554 38.5584 43.2929 40.3293 46.3738 41.1092L45.1797 41.8306C48.0609 43.186 59.3449 43.0986 61.2073 41.459L55.1928 40.6502C58.8183 39.3339 61.8039 36.6874 63.5408 33.2503Z" fill="#333333"/>
<path d="M57.2853 15.9912C57.4715 14.8435 56.6718 14.2095 55.7844 13.6848C55.7844 14.1549 55.9049 14.8544 55.1818 14.6139C54.4588 14.3735 54.1521 13.7942 53.6481 13.3679L54.9627 13.0181C51.7638 10.7555 46.6039 12.2202 45.2783 15.8819C46.9982 16.6033 48.6744 17.4558 50.4492 18.0024C51.7502 18.3632 53.0979 18.529 54.4478 18.4942C55.1389 18.472 55.8006 18.2097 56.3186 17.7527C56.8366 17.2958 57.1785 16.6728 57.2853 15.9912Z" fill="#333333"/>
<path d="M39.2638 22.8555C39.7115 23.6698 40.3712 24.3484 41.1734 24.8198C41.9755 25.2911 42.8903 25.5377 43.8212 25.5334C44.3383 25.5338 44.8523 25.4526 45.344 25.2929C46.127 24.9738 46.8819 24.5899 47.6008 24.1452C47.3488 23.9266 47.2941 23.872 47.2721 23.872C47.1634 23.8895 47.0568 23.9188 46.9544 23.9594C46.2198 24.3154 45.4157 24.5057 44.599 24.5169C43.4384 24.5052 42.3214 24.0741 41.4549 23.3036C40.2292 22.1405 39.0767 20.903 38.004 19.5982C38.004 19.478 38.004 19.3687 38.0916 19.2484H40.8414C41.1262 17.0623 41.7068 16.5049 43.7993 16.0786C44.0951 16.024 44.4019 15.6523 44.5662 15.3463C45.2128 14.107 46.1836 13.0655 47.3756 12.3323C48.5676 11.5991 49.9364 11.2015 51.3366 11.1818C51.7844 11.1801 52.2315 11.2167 52.6731 11.2911C53.9816 11.5174 55.2102 12.0742 56.2419 12.9084C57.2736 13.7426 58.0741 14.8265 58.5671 16.0567C58.7976 15.9664 59.0425 15.9183 59.2901 15.9147C59.5722 15.9167 59.8458 16.0107 60.0694 16.1824C60.2929 16.3541 60.454 16.594 60.5281 16.8656C60.5757 16.9648 60.6445 17.0524 60.7297 17.1223C60.8148 17.1921 60.9143 17.2426 61.021 17.27C61.5926 17.3398 62.1314 17.5745 62.5712 17.9453C63.011 18.3162 63.3327 18.8071 63.4969 19.3577C63.3983 17.6744 62.9492 17.1716 61.021 16.7891C61.0158 16.5594 60.9617 16.3335 60.8621 16.1264C60.7626 15.9192 60.62 15.7356 60.4438 15.5877C60.2676 15.4399 60.0619 15.3311 59.8403 15.2688C59.6187 15.2064 59.3863 15.1918 59.1586 15.226H58.7423C57.3072 12.1109 54.9628 10.3183 51.4899 10.2855H51.3694C47.6884 10.2855 45.2783 12.253 43.9089 15.5758C41.4658 15.6633 40.8195 16.1661 40.195 18.3631L37.3905 18.8987L36.8646 18.3631C35.238 16.6232 33.3975 15.0955 31.387 13.816C30.0942 12.9853 24.9014 10.5369 23.4663 9.88107C23.4397 9.86826 23.4141 9.85365 23.3896 9.83735C23.1193 9.71638 22.8303 9.64245 22.5351 9.61874C22.2064 9.61874 21.9106 9.7827 21.7353 10.2855C21.4724 11.0178 21.8339 11.2802 22.3488 11.466L22.8966 11.6409C24.255 12.0781 29.4698 14.2751 30.7515 14.8653L31.4089 15.1823C34.752 16.8785 37.4935 19.5565 39.2638 22.8555Z" fill="#333333"/>
<path d="M60.9662 29.3372C60.9468 29.1683 60.8882 29.0063 60.795 28.864C60.7018 28.7216 60.5766 28.603 60.4294 28.5174C59.6954 28.3644 58.6547 29.687 58.6108 30.9767C58.7204 31.086 58.9285 31.4905 59.2024 31.5451C59.9145 31.6981 60.9991 30.3428 60.9662 29.3372Z" fill="#333333"/>
<path d="M54.3383 24.0469C54.3383 23.8283 54.3383 23.5987 54.3383 23.3801L52.5854 23.238V23.9376L54.3383 24.0469Z" fill="#333333"/>
<path d="M44.5223 23.1178C45.0701 23.8501 45.6836 23.7299 46.3738 22.8445L44.599 22.6041L44.5223 23.1178Z" fill="#333333"/>
<path d="M58.9286 19.0079C59.1587 19.9808 59.805 19.9698 60.7472 19.3468L59.1586 18.5817L58.9286 19.0079Z" fill="#333333"/>
<path d="M0 86.2517H9.61876V88.088H2.71692V93.28H9.04908V95.0944H2.71692V101.062H0V86.2517Z" fill="#333333"/>
<path d="M11.525 88.0553H13.5846L14.1652 90.4818V101.008H11.525V88.0553ZM18.8212 90.7223C18.6266 90.4316 18.3598 90.1963 18.0468 90.0392C17.7338 89.8821 17.3854 89.8087 17.0355 89.826C16.638 89.806 16.2412 89.8763 15.875 90.0315C15.5087 90.1868 15.1826 90.423 14.9211 90.7223C14.4215 91.2859 14.1484 92.0139 14.1542 92.7663L13.1463 92.0449C13.1397 91.4912 13.255 90.9429 13.4841 90.4387C13.7131 89.9344 14.0503 89.4864 14.4719 89.1264C15.4606 88.2941 16.7296 87.8681 18.0215 87.935C18.6412 87.8665 19.2678 87.97 19.8323 88.2343C20.3968 88.4985 20.8771 88.9132 21.2204 89.4325C21.9022 90.9207 22.2033 92.5544 22.0968 94.1872H19.4347C19.5339 92.9987 19.3225 91.8049 18.8212 90.7223Z" fill="#333333"/>
<path d="M27.3883 84.4045V86.5906H24.7261V84.4045H27.3883ZM24.7371 88.0443H27.3883V101.008H24.7261L24.7371 88.0443Z" fill="#333333"/>
<path d="M31.0911 99.3573C30.0991 97.9396 29.6129 96.2305 29.7108 94.5042C29.5899 92.7653 30.0863 91.0395 31.113 89.6292C31.6904 89.0292 32.3963 88.5671 33.1779 88.2775C33.9595 87.9879 34.7966 87.8783 35.6266 87.9569C37.8177 87.9569 39.2857 88.5143 40.184 89.6292C41.1554 91.0667 41.6216 92.785 41.5096 94.5151C41.5274 94.7881 41.5274 95.0619 41.5096 95.3349H32.0004V93.6844H38.8365C38.8748 92.6068 38.5928 91.5419 38.0258 90.6239C37.7278 90.2902 37.3585 90.0276 36.9451 89.8555C36.5318 89.6833 36.0849 89.606 35.6376 89.6292C35.1759 89.617 34.7173 89.7089 34.2962 89.8982C33.8751 90.0875 33.5023 90.3691 33.2055 90.7223C32.581 91.4 32.2743 92.6788 32.2743 94.5479C32.1489 95.8673 32.469 97.1907 33.1836 98.308C33.4827 98.6725 33.8638 98.9614 34.2959 99.1513C34.728 99.3413 35.199 99.4268 35.6704 99.401V101.128C33.5232 101.117 31.9895 100.56 31.0911 99.3573ZM37.248 99.1059C37.6916 98.9017 38.0541 98.5554 38.2778 98.1221C38.5293 97.6229 38.717 97.0941 38.8365 96.5482L41.2138 97.204C41.11 98.0001 40.7962 98.7545 40.3045 99.3901C39.8294 99.9771 39.2052 100.426 38.4969 100.691C37.5868 100.995 36.6298 101.136 35.6704 101.106V99.3901C36.2099 99.3999 36.746 99.3033 37.248 99.1059Z" fill="#333333"/>
<path d="M44.4128 99.4666C43.5315 97.9874 43.1226 96.2756 43.2405 94.5588C43.1167 92.8347 43.5258 91.1141 44.4128 89.6292C44.8225 89.0694 45.3684 88.6231 45.9991 88.3324C46.6297 88.0417 47.3243 87.9162 48.0171 87.9678C49.3396 87.9319 50.6397 88.3145 51.7309 89.0608C52.1568 89.2827 52.5209 89.6065 52.7905 90.0033C53.0601 90.4001 53.2268 90.8575 53.2756 91.3344L52.1143 92.6132C52.1099 92.2398 52.0231 91.872 51.8603 91.5358C51.6975 91.1996 51.4626 90.9032 51.1722 90.6676C50.5538 90.1122 49.7473 89.8114 48.9154 89.826C48.4988 89.8097 48.0841 89.89 47.7039 90.0607C47.3237 90.2314 46.9884 90.4878 46.7243 90.8097C46.07 91.9487 45.7903 93.2638 45.9246 94.5698C45.7933 95.8756 46.0728 97.1898 46.7243 98.3298C46.9873 98.6537 47.3221 98.9122 47.7024 99.0848C48.0826 99.2574 48.4979 99.3395 48.9154 99.3245C49.7624 99.3095 50.5709 98.9689 51.1722 98.3735C51.4626 98.1331 51.6972 97.8327 51.8598 97.493C52.0225 97.1534 52.1093 96.7825 52.1143 96.4061L53.2756 97.7177C53.2224 98.1905 53.0538 98.643 52.7844 99.0356C52.5151 99.4281 52.1534 99.7488 51.7309 99.9694C50.6374 100.711 49.3389 101.093 48.0171 101.062C47.3302 101.12 46.6399 101.005 46.0098 100.726C45.3798 100.447 44.8305 100.014 44.4128 99.4666ZM52.0815 98.9856V83.847H54.7765V101.008H52.2896L52.0815 98.9856Z" fill="#333333"/>
<path d="M57.0662 88.0553H59.1586L59.7393 90.4818V101.008H57.0662V88.0553ZM64.3624 90.7223C64.1678 90.4316 63.901 90.1963 63.588 90.0392C63.275 89.8821 62.9266 89.8087 62.5767 89.826C62.1792 89.806 61.7824 89.8763 61.4162 90.0315C61.0499 90.1868 60.7238 90.423 60.4623 90.7223C59.9627 91.2859 59.6896 92.0139 59.6954 92.7663L58.6766 92.0886C58.67 91.535 58.7853 90.9867 59.0143 90.4824C59.2434 89.9781 59.5806 89.5302 60.0022 89.1702C60.9815 88.3247 62.2467 87.883 63.5407 87.935C64.1605 87.8665 64.7871 87.97 65.3516 88.2343C65.9161 88.4985 66.3964 88.9132 66.7397 89.4325C67.4215 90.9207 67.7226 92.5544 67.6161 94.1872H64.9759C65.0751 92.9987 64.8637 91.8049 64.3624 90.7223Z" fill="#333333"/>
<path d="M72.9185 84.4045V86.5906H70.2673V84.4045H72.9185ZM70.2673 88.0443H72.9185V101.008H70.2673V88.0443Z" fill="#333333"/>
<path d="M76.468 99.4666C75.4679 98.049 74.9846 96.3324 75.0986 94.6026C74.9644 92.8366 75.4484 91.0789 76.468 89.6293C77.3773 88.5362 78.8891 87.9788 81.0145 87.9788C82.9426 87.9788 84.3011 88.4378 85.0898 89.3778C85.8542 90.2266 86.3196 91.3013 86.4154 92.4384L84.06 93.2363C84.0922 92.3313 83.8096 91.4431 83.2603 90.7223C82.9866 90.4169 82.6476 90.1767 82.2683 90.0197C81.8891 89.8627 81.4793 89.7927 81.0692 89.8151C80.6306 89.8005 80.1942 89.8843 79.7923 90.0602C79.3904 90.2361 79.0331 90.4997 78.7467 90.8316C78.0162 91.9272 77.6766 93.2363 77.7827 94.5479C77.6653 95.8308 77.9816 97.1159 78.681 98.1987C78.9554 98.5468 79.3069 98.8267 79.708 99.0163C80.1091 99.206 80.5488 99.3003 80.9926 99.2917C81.4085 99.311 81.8232 99.2331 82.2036 99.0642C82.584 98.8953 82.9196 98.6401 83.1836 98.3189C83.7245 97.6364 84.0248 96.7951 84.0381 95.9252L86.3935 96.7559C86.2559 97.8428 85.7941 98.8634 85.0679 99.6852C84.5465 100.201 83.9184 100.596 83.2276 100.843C82.5368 101.091 81.8001 101.184 81.0692 101.117C78.8782 101.117 77.3773 100.56 76.468 99.4666Z" fill="#333333"/>
<path d="M89.5815 99.3573C88.5895 97.9396 88.1034 96.2305 88.2012 94.5042C88.0803 92.7653 88.5768 91.0395 89.6035 89.6292C90.1809 89.0292 90.8868 88.5671 91.6683 88.2775C92.4499 87.9879 93.287 87.8783 94.117 87.9569C96.3081 87.9569 97.7761 88.5143 98.6744 89.6292C99.6458 91.0667 100.112 92.785 100 94.5151C100.018 94.7881 100.018 95.0619 100 95.3349H90.4908V93.6844H97.3269C97.3652 92.6068 97.0832 91.5419 96.5162 90.6239C96.2182 90.2902 95.8489 90.0276 95.4355 89.8555C95.0222 89.6833 94.5753 89.606 94.128 89.6292C93.6663 89.617 93.2078 89.7089 92.7866 89.8982C92.3655 90.0875 91.9927 90.3691 91.6959 90.7223C91.0715 91.4 90.7647 92.6788 90.7647 94.5479C90.6393 95.8673 90.9594 97.1907 91.674 98.308C91.9731 98.6725 92.3542 98.9614 92.7864 99.1513C93.2185 99.3413 93.6894 99.4268 94.1609 99.401V101.128C92.0246 101.117 90.4799 100.56 89.5815 99.3573ZM95.7384 99.1059C96.182 98.9017 96.5445 98.5554 96.7682 98.1221C97.0197 97.6229 97.2074 97.0941 97.3269 96.5482L99.7042 97.204C99.6004 98.0001 99.2866 98.7545 98.7949 99.3901C98.3198 99.9771 97.6956 100.426 96.9873 100.691C96.0772 100.995 95.1202 101.136 94.1609 101.106V99.3901C94.7003 99.3999 95.2364 99.3033 95.7384 99.1059Z" fill="#333333"/>
<path d="M24.4741 123.087L31.7704 112.069H24.5946V110.244H34.6845V112.08L27.3882 123.164H34.9255V125H24.4741V123.087Z" fill="#333333"/>
<path d="M38.1792 123.448C37.2411 121.964 36.7432 120.245 36.7432 118.491C36.7432 116.736 37.2411 115.018 38.1792 113.534C38.7742 112.951 39.4887 112.504 40.2735 112.222C41.0584 111.941 41.895 111.833 42.7257 111.905C43.5565 111.832 44.3933 111.94 45.1782 112.221C45.9632 112.503 46.6776 112.95 47.2722 113.534C48.2029 115.021 48.6964 116.738 48.6964 118.491C48.6964 120.244 48.2029 121.961 47.2722 123.448C46.6822 124.039 45.969 124.493 45.1833 124.779C44.3975 125.064 43.5585 125.173 42.7257 125.098C41.893 125.172 41.0541 125.063 40.2685 124.778C39.4829 124.492 38.7697 124.038 38.1792 123.448ZM45.103 122.355C45.7274 121.688 46.0342 120.431 46.0342 118.551C46.0342 116.671 45.7274 115.403 45.103 114.758C44.4705 114.129 43.6136 113.775 42.7202 113.775C41.8269 113.775 40.97 114.129 40.3374 114.758C39.713 115.403 39.3953 116.671 39.3953 118.551C39.3953 120.431 39.713 121.688 40.3374 122.355C40.97 122.984 41.8269 123.338 42.7202 123.338C43.6136 123.338 44.4705 122.984 45.103 122.355Z" fill="#333333"/>
<path d="M50.734 112.047H52.7936L53.3742 114.452V125H50.734V112.047ZM58.9724 117.764C59.0681 116.686 58.8474 115.604 58.337 114.649C58.1181 114.352 57.8276 114.115 57.4924 113.96C57.1572 113.806 56.7883 113.738 56.4198 113.764C56.0054 113.762 55.5954 113.849 55.2175 114.019C54.8396 114.188 54.5024 114.437 54.2287 114.747C53.6139 115.434 53.2882 116.33 53.3195 117.25L52.0377 116.518C52.064 115.926 52.2106 115.346 52.4686 114.812C52.7266 114.278 53.0906 113.803 53.5386 113.414C54.0499 112.916 54.6575 112.528 55.3243 112.272C55.991 112.017 56.703 111.899 57.4167 111.927C58.0551 111.866 58.6981 111.979 59.277 112.255C59.8559 112.53 60.3489 112.957 60.7033 113.49C61.3918 114.798 61.717 116.266 61.6455 117.742V125H58.9724V117.764Z" fill="#333333"/>
<path d="M64.9649 123.35C63.9526 121.94 63.4505 120.228 63.5407 118.496C63.4196 116.747 63.9157 115.011 64.943 113.589C65.5214 112.99 66.2274 112.529 67.0088 112.239C67.7901 111.95 68.6267 111.839 69.4566 111.916C71.6477 111.916 73.1266 112.474 74.014 113.589C74.9877 115.025 75.4541 116.744 75.3396 118.475C75.3636 118.747 75.3636 119.022 75.3396 119.294H65.8742V117.677H72.7103C72.7554 116.598 72.4728 115.531 71.8996 114.616C71.5986 114.288 71.2282 114.03 70.8151 113.862C70.4021 113.694 69.9568 113.619 69.5114 113.643C69.0504 113.636 68.5933 113.73 68.1729 113.919C67.7525 114.108 67.3791 114.387 67.0793 114.736C66.3384 115.867 66.0097 117.218 66.1481 118.562C66.0253 119.881 66.3451 121.204 67.0574 122.322C67.3577 122.685 67.739 122.973 68.1708 123.163C68.6026 123.353 69.073 123.439 69.5442 123.415V125.142C67.397 125.109 65.8742 124.53 64.9649 123.35ZM71.1218 123.098C71.5699 122.901 71.9343 122.552 72.1516 122.114C72.4065 121.617 72.5943 121.087 72.7103 120.54L75.0876 121.196C74.9885 121.994 74.6742 122.749 74.1783 123.382C73.7141 123.981 73.0864 124.432 72.3707 124.683C71.4619 124.993 70.5039 125.133 69.5442 125.098V123.371C70.0835 123.391 70.6208 123.298 71.1218 123.098Z" fill="#333333"/>
</g>
<defs>
<clipPath id="clip0_2103_838">
<rect width="100" height="125" fill="white"/>
</clipPath>
</defs>
</svg>
