<svg width="100" height="98" viewBox="0 0 100 98" fill="none" xmlns="http://www.w3.org/2000/svg">
<g clip-path="url(#clip0_2103_837)">
<path d="M38.0634 38.261C37.3719 37.8919 36.6079 37.6801 35.8255 37.6406C35.6314 37.6177 35.4346 37.6475 35.2558 37.7268C35.077 37.8061 34.9226 37.9321 34.8089 38.0916C34.6951 38.251 34.6261 38.4382 34.609 38.6335C34.592 38.8288 34.6275 39.0252 34.7118 39.2021C34.8703 39.6743 35.085 40.1256 35.3512 40.5464C35.8462 41.3426 36.3824 42.0975 36.8774 42.9041C37.2937 43.5547 37.6394 44.248 37.9087 44.9722C38.0559 45.3063 38.1062 45.6752 38.054 46.0367C38.0018 46.3982 37.8491 46.7376 37.6134 47.016C37.3776 47.2945 37.0685 47.5007 36.7213 47.6111C36.3741 47.7215 36.0029 47.7316 35.6502 47.6402C35.0119 47.5598 34.3853 47.4036 33.7837 47.1748C30.3736 45.7513 27.3305 43.5697 24.884 40.7946C23.5581 39.3749 22.7323 37.5589 22.5328 35.6241C22.3575 34.0937 22.2337 32.5219 22.0584 31.0225C21.8109 28.8406 21.0272 26.9482 18.9647 25.8521C17.985 25.3143 17.4694 25.5522 17.49 26.6586C17.5622 29.8643 17.5622 33.0803 17.7994 36.2756C17.9035 38.188 18.2678 40.0772 18.8822 41.8907C19.9514 44.8234 21.6255 47.4969 23.7952 49.7367C25.9649 51.9765 28.5813 53.7322 31.4737 54.8891C33.8868 55.9232 36.4134 56.7608 38.8265 57.7949C42.3121 59.2943 45.6121 61.0832 47.9221 64.475C47.9221 64.2062 47.9943 64.0924 48.0046 63.9683C48.3552 60.0459 48.2826 56.097 47.788 52.1901C47.0043 45.7788 43.3949 41.4253 38.0634 38.261Z" fill="#333333"/>
<path d="M82.4998 26.6069C82.4998 25.5729 81.9532 25.3247 81.0767 25.821C80.3313 26.2025 79.6856 26.7539 79.1913 27.431C78.697 28.108 78.3679 28.8918 78.2304 29.7195C77.9313 31.4775 77.787 33.2664 77.591 35.0451C77.4497 37.075 76.678 39.0097 75.3842 40.5774C73.6877 42.5236 71.7098 44.2038 69.5164 45.5617C68.028 46.5892 66.342 47.2937 64.5664 47.6298C62.5761 47.9194 61.4726 46.5958 62.2151 44.6931C62.6457 43.7712 63.1384 42.8798 63.6898 42.0251C64.2158 41.1048 64.8345 40.2258 65.2573 39.2745C65.3626 39.076 65.4075 38.8509 65.3863 38.6271C65.3652 38.4033 65.279 38.1907 65.1384 38.0156C64.9978 37.8405 64.8091 37.7106 64.5955 37.6421C64.382 37.5736 64.1532 37.5695 63.9373 37.6303C63.3181 37.6588 62.7142 37.8323 62.1739 38.137C60.8866 38.932 59.647 39.8021 58.4614 40.7429C55.5791 42.9211 53.5472 46.0414 52.7174 49.5636C51.9008 53.0974 51.554 56.724 51.6861 60.3491C51.6861 61.6727 51.8408 62.9963 51.9439 64.4854C53.82 61.8775 56.3791 59.8411 59.338 58.6015C61.648 57.5674 64.0198 56.5333 66.4226 55.6957C70.6545 54.2976 74.4289 51.7745 77.3435 48.3951C79.8209 45.5824 81.4296 42.1083 81.9738 38.3955C82.4275 34.4834 82.6033 30.544 82.4998 26.6069Z" fill="#333333"/>
<path d="M72.3832 41.5288L72.5482 41.6115L73.8682 40.2051C74.6357 39.4946 75.2232 38.6109 75.5819 37.6271C75.9406 36.6434 76.0602 35.5881 75.9307 34.5487C75.5834 32.7108 75.1428 30.8919 74.6107 29.0991C74.4663 28.5614 73.8579 28.4786 73.3938 28.9129C72.4907 29.6365 71.8909 30.6734 71.7129 31.8187C71.6098 32.9551 71.6305 34.0993 71.7748 35.2312C72.0326 37.32 72.6307 39.3779 72.3832 41.5288Z" fill="#333333"/>
<path d="M27.5136 41.5908C27.5652 40.6188 27.5136 39.7191 27.658 38.8401C27.8539 37.289 28.153 35.7379 28.3696 34.2178C28.5461 33.2864 28.4876 32.3254 28.1995 31.4224C27.9113 30.5194 27.4026 29.703 26.7196 29.0474C26.0699 28.4166 25.513 28.5614 25.2758 29.4197C24.9664 30.5054 24.7086 31.5912 24.3993 32.6667C24.019 33.8828 23.9134 35.1686 24.0899 36.4307C24.4611 38.6333 25.9461 40.1017 27.5136 41.5908Z" fill="#333333"/>
<path d="M49.9949 0C42.8927 0.0136956 36.0861 2.85238 31.0689 7.89303C26.0518 12.9337 23.234 19.7644 23.234 26.8861C23.234 27.4859 23.234 28.0857 23.2959 28.6751C23.8833 21.9781 26.9515 15.7448 31.8956 11.2041C36.8396 6.6634 43.3008 4.14477 50.0052 4.14477C56.7096 4.14477 63.1707 6.6634 68.1148 11.2041C73.0588 15.7448 76.127 21.9781 76.7145 28.6751C76.7145 28.0857 76.7763 27.4859 76.7763 26.8861C76.7763 19.7609 73.9557 12.927 68.9341 7.88573C63.9125 2.84449 57.1006 0.00822147 49.9949 0Z" fill="#333333"/>
<path d="M49.7783 45.4996C49.9123 45.2825 50.0567 45.0653 50.2011 44.8481C50.0464 45.0653 49.902 45.2825 49.7576 45.51L49.7783 45.4996Z" fill="#333333"/>
<path d="M0 84.588V76.7599H5.89873V78.218H1.77374V84.588H0ZM1.67062 81.6925V80.2448H5.41405V81.6925H1.67062Z" fill="#333333"/>
<path d="M7.12585 84.588V76.7599H13.0143V78.218H8.88929V83.1299H13.138V84.588H7.12585ZM8.78616 81.3202V79.9036H12.5399V81.3202H8.78616Z" fill="#333333"/>
<path d="M14.6024 84.588V76.7599H20.5011V78.218H16.3762V83.1299H20.6249V84.588H14.6024ZM16.2627 81.3202V79.9036H20.0165V81.3202H16.2627Z" fill="#333333"/>
<path d="M22.079 84.588V76.76H25.6265C26.3929 76.7491 27.1516 76.9154 27.8436 77.246C28.47 77.5429 29.0019 78.0082 29.3802 78.5903C29.7422 79.2191 29.9328 79.9324 29.9328 80.6584C29.9328 81.3845 29.7422 82.0978 29.3802 82.7266C29.0126 83.3254 28.4785 83.8034 27.8436 84.1019C27.1453 84.4356 26.3793 84.602 25.6058 84.588H22.079ZM23.894 83.1092H25.5337C26.0039 83.1222 26.4704 83.0229 26.8949 82.8197C27.2651 82.6276 27.5728 82.3334 27.7818 81.9717C27.9913 81.5714 28.1008 81.1261 28.1008 80.674C28.1008 80.2218 27.9913 79.7765 27.7818 79.3762C27.5722 79.0176 27.2644 78.7269 26.8949 78.5386C26.4712 78.3321 26.0047 78.2294 25.5337 78.2387H23.894V83.1092Z" fill="#333333"/>
<path d="M36.0936 84.588V78.2387H33.5568V76.7599H40.363V78.2387H37.8674V84.588H36.0936Z" fill="#333333"/>
<path d="M41.3324 84.588V76.7599H43.1474V84.588H41.3324ZM43.003 81.3823V79.8519H46.8186V81.3823H43.003ZM46.6846 84.588V76.7599H48.4686V84.588H46.6846Z" fill="#333333"/>
<path d="M50.3351 84.588V76.7599H56.2339V78.218H52.1089V83.1299H56.3576V84.588H50.3351ZM51.9954 81.3202V79.9036H55.7492V81.3202H51.9954Z" fill="#333333"/>
<path d="M60.9673 84.588V76.7599H62.7823V84.588H60.9673ZM62.6379 81.3823V79.8519H66.4535V81.3823H62.6379ZM66.3195 84.588V76.7599H68.1241V84.588H66.3195Z" fill="#333333"/>
<path d="M69.9804 84.588V76.7599H75.8688V78.218H71.7438V83.1299H75.9823V84.588H69.9804ZM71.6407 81.3202V79.9036H75.3945V81.3202H71.6407Z" fill="#333333"/>
<path d="M76.4257 84.588L79.901 76.7599H81.6851L85.181 84.588H83.2835L80.4373 77.6803H81.1695L78.282 84.588H76.4257ZM78.1788 82.9127L78.6326 81.5374H82.6751L83.1391 82.9127H78.1788Z" fill="#333333"/>
<path d="M85.9957 84.5879V76.7599H89.3266C90.231 76.7071 91.1251 76.9742 91.8531 77.5148C92.1676 77.7657 92.4184 78.0875 92.5851 78.4542C92.7518 78.8208 92.8296 79.2218 92.8122 79.6243C92.8303 80.1579 92.6864 80.6843 92.3997 81.1341C92.1124 81.5652 91.703 81.9002 91.2241 82.0958C90.6526 82.3328 90.0375 82.4456 89.4194 82.4267H86.9857L87.8107 81.6511V84.5879H85.9957ZM87.8107 81.8166L86.9857 80.9583H89.275C89.7203 80.9869 90.1615 80.8589 90.5228 80.5964C90.6569 80.4662 90.7636 80.3103 90.8364 80.138C90.9092 79.9657 90.9467 79.7805 90.9467 79.5933C90.9467 79.4062 90.9092 79.2209 90.8364 79.0486C90.7636 78.8763 90.6569 78.7204 90.5228 78.5903C90.1602 78.3314 89.7191 78.2071 89.275 78.2387H86.9857L87.8107 77.3804V81.8166ZM90.9663 84.5879L89.0069 81.7545H90.9457L92.905 84.5879H90.9663Z" fill="#333333"/>
<path d="M95.6997 84.588V78.2387H93.2041V76.7599H100.031V78.2387H97.5044V84.588H95.6997Z" fill="#333333"/>
<path d="M0.247559 98V90.172H6.18754V91.6301H2.06255V98H0.247559ZM1.91818 95.1356V93.6982H5.67192V95.1356H1.91818Z" fill="#333333"/>
<path d="M13.2824 98.1344C12.7017 98.1395 12.125 98.0379 11.5809 97.8346C11.0762 97.6439 10.6137 97.3558 10.2196 96.9866C9.81762 96.6285 9.49751 96.1876 9.28118 95.694C9.0704 95.1843 8.96191 94.6378 8.96191 94.086C8.96191 93.5342 9.0704 92.9878 9.28118 92.478C9.48302 91.9899 9.78929 91.5521 10.1784 91.1957C10.5683 90.8262 11.0275 90.538 11.5293 90.3478C12.0721 90.1395 12.6497 90.0377 13.2309 90.0479C13.8109 90.0395 14.3876 90.1376 14.9324 90.3375C15.435 90.5261 15.8945 90.8145 16.2833 91.1854C16.6661 91.5474 16.9713 91.9836 17.1805 92.4677C17.6063 93.5043 17.6063 94.6677 17.1805 95.7043C16.9688 96.19 16.664 96.6292 16.2833 96.9969C15.8914 97.3613 15.4326 97.6457 14.9324 97.8346C14.4058 98.0367 13.8462 98.1384 13.2824 98.1344ZM13.2824 96.604C13.6114 96.6082 13.9378 96.5448 14.2415 96.4179C14.5335 96.2987 14.797 96.1189 15.0149 95.8905C15.2407 95.6663 15.4196 95.3991 15.5408 95.1046C15.6667 94.7748 15.7263 94.4234 15.7162 94.0705C15.7274 93.7175 15.6678 93.3659 15.5408 93.0364C15.4198 92.7387 15.241 92.4681 15.0149 92.2402C14.797 92.0117 14.5335 91.832 14.2415 91.7128C13.9357 91.594 13.6103 91.5344 13.2824 91.537C12.9513 91.5355 12.6227 91.5951 12.313 91.7128C12.0211 91.832 11.7575 92.0117 11.5396 92.2402C11.3168 92.4687 11.1415 92.7393 11.024 93.0364C10.8936 93.3651 10.8304 93.7168 10.8384 94.0705C10.8315 94.4241 10.8946 94.7756 11.024 95.1046C11.1415 95.3986 11.3168 95.6659 11.5396 95.8905C11.7575 96.1189 12.0211 96.2987 12.313 96.4179C12.6174 96.5426 12.9433 96.6059 13.2721 96.604H13.2824Z" fill="#333333"/>
<path d="M24.5953 98.1344C24.1159 98.1801 23.6323 98.1183 23.1796 97.9535C22.727 97.7887 22.3165 97.525 21.978 97.1816C21.6394 96.8381 21.3812 96.4235 21.2222 95.9677C21.0631 95.5119 21.007 95.0264 21.0581 94.5462V90.172H22.8834V94.5048C22.8302 95.0771 22.992 95.6487 23.3372 96.1076C23.5004 96.2772 23.6983 96.4094 23.9172 96.495C24.1362 96.5807 24.371 96.6179 24.6056 96.604C24.8418 96.618 25.0782 96.581 25.2988 96.4953C25.5195 96.4097 25.7192 96.2775 25.8844 96.1076C26.2332 95.6502 26.3987 95.0784 26.3484 94.5048V90.172H28.1222V94.5462C28.1534 95.0298 28.0863 95.5147 27.925 95.9716C27.7637 96.4284 27.5115 96.8476 27.1837 97.2038C26.8367 97.5253 26.4287 97.7734 25.984 97.9333C25.5393 98.0932 25.067 98.1616 24.5953 98.1344Z" fill="#333333"/>
<path d="M32.1439 98V90.172H33.6392L38.2386 95.8078H37.5167V90.172H39.3008V98H37.8055L33.1958 92.3643H33.928V98H32.1439Z" fill="#333333"/>
<path d="M43.3743 98V90.172H46.9218C47.6965 90.1565 48.4637 90.3267 49.1596 90.6684C49.7841 90.9694 50.31 91.4429 50.6755 92.0333C51.0375 92.6621 51.2281 93.3754 51.2281 94.1015C51.2281 94.8276 51.0375 95.5409 50.6755 96.1697C50.3118 96.7616 49.7854 97.2356 49.1596 97.5347C48.4613 97.8684 47.6952 98.0348 46.9218 98.0207L43.3743 98ZM45.1893 96.5213H46.8289C47.2992 96.5342 47.7657 96.435 48.1902 96.2317C48.5625 96.0426 48.8709 95.7476 49.0771 95.3838C49.2866 94.9835 49.3961 94.5381 49.3961 94.086C49.3961 93.6339 49.2866 93.1885 49.0771 92.7882C48.8723 92.4258 48.5632 92.1339 48.1902 91.9506C47.7665 91.7442 47.2999 91.6414 46.8289 91.6507H45.1893V96.5213Z" fill="#333333"/>
<path d="M53.6764 98L57.1414 90.172H58.9254L62.4214 98H60.5342L57.6673 91.0923H58.3892L55.5223 98H53.6764ZM55.4295 96.3248L55.8833 94.9495H59.9154L60.3898 96.3248H55.4295Z" fill="#333333"/>
<path d="M66.6907 98V91.6507H64.1951V90.172H71.0014V91.6507H68.4954V98H66.6907Z" fill="#333333"/>
<path d="M74.2498 98V90.172H76.0648V98H74.2498Z" fill="#333333"/>
<path d="M83.8713 98.1344C83.2906 98.1395 82.7139 98.0379 82.1697 97.8346C81.6651 97.6439 81.2026 97.3558 80.8085 96.9866C80.4214 96.6244 80.1156 96.1838 79.9113 95.694C79.7005 95.1843 79.592 94.6378 79.592 94.086C79.592 93.5342 79.7005 92.9878 79.9113 92.478C80.1131 91.9899 80.4194 91.5521 80.8085 91.1957C81.1984 90.8262 81.6576 90.538 82.1594 90.3478C82.7022 90.1395 83.2799 90.0377 83.861 90.0479C84.441 90.0395 85.0177 90.1376 85.5625 90.3375C86.0663 90.5238 86.5262 90.8125 86.9135 91.1854C87.3025 91.5418 87.6088 91.9795 87.8107 92.4677C88.2364 93.5043 88.2364 94.6677 87.8107 95.7043C87.6064 96.1941 87.3006 96.6348 86.9135 96.9969C86.523 97.3632 86.0638 97.6479 85.5625 97.8346C85.023 98.0418 84.449 98.1436 83.8713 98.1344ZM83.8713 96.604C84.2003 96.6082 84.5267 96.5448 84.8304 96.4179C85.1241 96.2962 85.3905 96.1169 85.6141 95.8905C85.8334 95.6631 86.0083 95.3965 86.1297 95.1046C86.2591 94.7756 86.3222 94.4241 86.3153 94.0705C86.3233 93.7168 86.2601 93.3651 86.1297 93.0364C86.0085 92.7412 85.8337 92.4712 85.6141 92.2402C85.3905 92.0137 85.1241 91.8344 84.8304 91.7128C84.5246 91.594 84.1992 91.5344 83.8713 91.537C83.5402 91.5355 83.2116 91.5951 82.9019 91.7128C82.6099 91.832 82.3464 92.0117 82.1285 92.2402C81.9089 92.4712 81.734 92.7412 81.6129 93.0364C81.4923 93.3777 81.4432 93.7403 81.4685 94.1015C81.4617 94.4551 81.5248 94.8066 81.6541 95.1356C81.7755 95.4275 81.9504 95.6941 82.1697 95.9215C82.3876 96.15 82.6512 96.3297 82.9432 96.4489C83.2367 96.5578 83.548 96.6105 83.861 96.604H83.8713Z" fill="#333333"/>
<path d="M91.7191 98V90.172H93.2144L97.8138 95.8078H97.0919V90.172H98.876V98H97.3807L92.8122 92.3643H93.5341V98H91.7191Z" fill="#333333"/>
<path d="M60.9776 27.4135C60.7365 25.8798 59.9306 24.4924 58.7192 23.5254C58.0784 22.978 57.3155 22.5936 56.4952 22.4046C55.6748 22.2156 54.8211 22.2276 54.0064 22.4396C53.0093 22.6649 52.0971 23.1707 51.3767 23.8976C50.8751 24.4074 50.4574 24.9938 50.1392 25.6349L50.0051 25.8831C50.0051 25.8831 50.0051 25.8831 50.0051 25.821L49.9123 25.6246C49.5452 24.8617 49.0216 24.1851 48.3758 23.6391L48.2417 23.515C47.1537 22.6094 45.7515 22.1741 44.3436 22.3052C43.6674 22.3609 43.0069 22.5396 42.3945 22.8325C41.6258 23.2063 40.9495 23.7467 40.4145 24.4147C39.6137 25.3968 39.122 26.5953 39.0017 27.8582C38.8662 29.505 39.1612 31.1588 39.8577 32.6563C40.2709 33.5355 40.8132 34.3477 41.4664 35.0657C42.1883 35.8516 42.9205 36.6375 43.6836 37.3924C44.7148 38.4265 45.7461 39.3985 46.7773 40.4326C47.6554 41.3151 48.4623 42.266 49.1904 43.2763C49.4689 43.659 49.737 44.0519 50.0154 44.4449H50.067C50.8924 43.1116 51.8531 41.8675 52.9339 40.7325C53.7795 39.8535 54.6457 38.9746 55.5223 38.1163C56.6448 37.07 57.7119 35.9654 58.7192 34.8072C59.9642 33.3927 60.7643 31.6406 61.0188 29.7712C61.1282 28.988 61.1143 28.1924 60.9776 27.4135Z" fill="#333333"/>
</g>
<defs>
<clipPath id="clip0_2103_837">
<rect width="100" height="98" fill="white"/>
</clipPath>
</defs>
</svg>
