<svg width="100" height="54" viewBox="0 0 100 54" fill="none" xmlns="http://www.w3.org/2000/svg">
<path d="M29.9931 30.9196C29.9931 31.2794 29.9931 31.5707 30.2006 31.7763C30.4063 31.9102 30.6348 32.006 30.875 32.059C31.2992 32.1467 31.7302 32.1983 32.1633 32.2132C32.7425 32.2132 33.5466 32.2132 34.5669 32.2132H36.5295H39.2357C40.1954 32.2132 41.1292 32.2132 42.0457 32.2132H44.3887V39.9238H26.967C26.967 37.8505 27.0189 36.1456 27.0362 34.7834C27.0535 33.4212 27.0362 32.3503 27.0794 31.4679C27.1226 30.5854 27.0794 29.8229 27.0794 29.1804V20.2618C27.0794 19.6107 27.0794 18.8482 27.0794 17.9657C27.0794 17.0833 27.0362 15.9867 27.0102 14.6587C26.9843 13.3308 26.9497 11.6259 26.9238 9.51832H32.0336L29.9931 30.9196ZM83.953 19.2594C84.7855 19.0984 85.6298 19.0038 86.4776 18.9767V17.9229C85.633 17.9419 84.7902 18.0077 83.953 18.1199V19.2594ZM87.5152 18.951C88.3592 18.9476 89.2025 18.9992 90.0398 19.1052V17.9914C89.2444 17.9143 88.4057 17.8801 87.5152 17.8801V18.951ZM98.1671 32.2646C97.4055 32.5297 96.6252 32.7387 95.8326 32.8901C95.0348 33.0437 94.2244 33.124 93.4117 33.1299C92.7415 33.1309 92.0736 33.0504 91.4231 32.8901C90.7952 32.7206 90.2075 32.4294 89.6939 32.0333C89.0998 31.5657 88.591 31.0006 88.1895 30.3627C87.687 29.5565 87.2835 28.6936 86.9877 27.7925C89.2101 27.8543 91.4282 27.5652 93.5587 26.9357C95.193 26.4528 96.6308 25.469 97.6656 24.1257C98.6724 22.6251 99.1692 20.8451 99.0835 19.0452C99.1618 17.1754 98.7634 15.3161 97.925 13.6392C97.2092 12.3022 96.0743 11.2318 94.6914 10.5892C93.1775 9.90908 91.5286 9.57528 89.8669 9.61257H76.0332C76.0332 11.6859 76.0937 13.3908 76.1197 14.753C76.1456 16.1152 76.1716 17.1775 76.1889 18.06C76.2061 18.9424 76.1889 19.7049 76.1889 20.356V29.129C76.1889 29.7715 76.1889 30.5426 76.1889 31.4165C76.1889 32.2903 76.0851 33.4127 76.0851 34.732C76.0851 36.0514 76.0246 37.7563 75.9986 39.8724H78.8778C78.8778 39.1271 78.8172 38.2532 78.774 37.2594C78.7308 36.2656 78.6789 35.2632 78.6789 34.3379C78.6789 33.4127 78.6789 32.693 78.6789 32.179C78.6648 31.42 78.7081 30.6611 78.8086 29.9086C78.8659 29.4362 79.0646 28.9916 79.3792 28.6321C79.6103 28.3786 79.9107 28.1971 80.2438 28.1095C80.7576 27.9713 81.2855 27.8908 81.8174 27.8696C82.5005 27.8267 83.3823 27.8096 84.4112 27.8096C84.6999 30.1493 85.3715 32.4267 86.3998 34.5521C87.2113 36.2444 88.4614 37.693 90.0225 38.7501C91.5388 39.7109 93.3068 40.2085 95.1064 40.1809C96.1227 40.1981 97.1385 40.1236 98.1411 39.9581C98.7782 39.856 99.4017 39.6836 100 39.4441V31.3565C99.4306 31.7354 98.8146 32.0405 98.1671 32.2646ZM85.8119 25.5136C84.6187 25.5136 83.6244 25.5136 82.8204 25.4536C82.0163 25.3936 81.3851 25.3508 80.9009 25.2737C80.4923 25.221 80.0899 25.1291 79.6991 24.9995C79.4174 24.8871 79.1743 24.6968 78.9988 24.4512C78.7915 24.1174 78.6588 23.7435 78.6097 23.3546C78.5509 22.9975 78.5163 22.6368 78.506 22.2751C79.3061 21.2757 80.3425 20.4871 81.5235 19.9791C81.9726 19.7752 82.4383 19.609 82.9155 19.4822V18.2827C81.9319 18.4385 80.9691 18.7028 80.045 19.0709C79.5262 19.2802 79.0234 19.5265 78.5406 19.8077C78.5406 19.6278 78.5406 19.4565 78.6097 19.3108C78.6636 18.9203 78.7959 18.5445 78.9988 18.2056C79.1707 17.9527 79.4144 17.7559 79.6991 17.6402C80.0906 17.5113 80.4928 17.4167 80.9009 17.3575C81.3851 17.2889 82.0163 17.2289 82.8204 17.1861C83.6244 17.1433 84.6187 17.1347 85.8119 17.1347C87.152 17.1347 88.2673 17.1347 89.1492 17.1947C90.0311 17.2546 90.7747 17.2975 91.354 17.366C91.8418 17.4237 92.3245 17.5182 92.7979 17.6487C93.2833 17.7914 93.7357 18.0272 94.1294 18.3427C94.3681 18.5438 94.5802 18.7741 94.7605 19.0281C93.5699 18.594 92.33 18.3062 91.0687 18.1713V19.2765C91.8706 19.4367 92.6531 19.6809 93.4031 20.0048C94.1659 20.3383 94.8741 20.783 95.5041 21.3241C95.5266 21.9502 95.3898 22.5719 95.1064 23.1318C94.868 23.6044 94.518 24.0129 94.0861 24.3227C93.6709 24.6255 93.2057 24.8545 92.7114 24.9995C91.9115 25.2119 91.0915 25.3412 90.2646 25.3851C89.1838 25.4707 87.7054 25.5136 85.8119 25.5136ZM8.04083 19.1823C8.92647 19.06 9.81849 18.9885 10.7125 18.9681V20.0819C9.81554 20.1147 8.92244 20.215 8.04083 20.3817V19.1823ZM11.8105 20.039C12.7037 20.034 13.5963 20.0884 14.4821 20.2018V19.0709C13.5942 18.9858 12.7025 18.9458 11.8105 18.951V20.039ZM22.4797 23.3546C22.4797 24.2113 22.4797 24.9824 22.4019 25.7449C22.3018 27.6048 21.929 29.4403 21.2952 31.1937C20.6282 33.0649 19.3264 34.6486 17.612 35.6744C16.3958 36.347 15.0601 36.7804 13.678 36.951C13.3761 36.5988 13.0005 36.3159 12.5772 36.1219C12.154 35.9279 11.6932 35.8274 11.2269 35.8274C10.7606 35.8274 10.2998 35.9279 9.87654 36.1219C9.45329 36.3159 9.07768 36.5988 8.77574 36.951C7.40215 36.79 6.07412 36.362 4.86774 35.6916C3.14362 34.6703 1.83216 33.086 1.15859 31.2109C0.875617 30.4664 0.65017 29.7017 0.484201 28.9234C0.126791 27.089 -0.0354886 25.2225 2.30279e-05 23.3546V22.8406C-0.0453493 20.3424 0.358677 17.8561 1.19318 15.4983C1.8793 13.6321 3.19188 12.0562 4.91097 11.0347C6.85498 10.0087 9.03889 9.51203 11.2399 9.59543C13.4496 9.50661 15.6433 10.0035 17.5947 11.0347C19.2948 12.0646 20.5884 13.6396 21.2606 15.4983C22.0253 17.5193 22.4375 19.6545 22.4797 21.8125C22.4797 22.3179 22.4797 22.8234 22.4797 23.3546ZM20.4998 23.3546C20.4998 23.149 20.4998 22.9605 20.4998 22.772C19.7755 22.104 18.9424 21.5623 18.0356 21.1699C17.2423 20.8242 16.4131 20.5656 15.5629 20.3989V19.1909C16.9417 19.3488 18.2952 19.677 19.5919 20.1675C19.7216 20.2275 19.8686 20.2703 19.9983 20.3389C19.8834 20.0382 19.7356 19.7509 19.5573 19.4822C18.8376 18.4421 17.7829 17.6748 16.5658 17.306C14.8429 16.7757 13.0431 16.5325 11.2399 16.5864C9.44069 16.5329 7.64473 16.7702 5.92255 17.2889C4.69849 17.653 3.63684 18.4208 2.91374 19.465C2.61944 19.9362 2.39522 20.4469 2.24799 20.9814C2.77331 20.6785 3.31934 20.4122 3.88209 20.1847C4.85848 19.7884 5.87632 19.5011 6.91685 19.3279V20.6473C6.41092 20.7827 5.91656 20.9574 5.43838 21.1699C4.04557 21.7595 2.84744 22.7241 1.97996 23.9543C2.0083 25.1015 2.33275 26.2223 2.92238 27.2099C3.63764 28.2689 4.70076 29.0499 5.9312 29.4203C7.65431 29.9347 9.44956 30.1719 11.2485 30.1228C13.0391 30.1741 14.8261 29.9368 16.5399 29.4203C17.7633 29.0451 18.8195 28.2647 19.5314 27.2099C20.225 26.0442 20.5698 24.7071 20.5257 23.3546H20.4998ZM11.2399 36.951C10.7269 36.951 10.2254 37.1017 9.79882 37.3841C9.37227 37.6666 9.03981 38.068 8.8435 38.5376C8.64718 39.0073 8.59581 39.524 8.69589 40.0226C8.79598 40.5212 9.04301 40.9791 9.40576 41.3386C9.76851 41.698 10.2307 41.9428 10.7338 42.042C11.237 42.1412 11.7585 42.0903 12.2325 41.8957C12.7064 41.7012 13.1115 41.3718 13.3965 40.9491C13.6815 40.5264 13.8337 40.0295 13.8337 39.5212C13.8337 38.8395 13.5604 38.1858 13.074 37.7038C12.5875 37.2218 11.9278 36.951 11.2399 36.951ZM56.0695 18.3941C56.9065 18.2788 57.7494 18.2102 58.5942 18.1885V19.2423C57.7464 19.2763 56.9025 19.3737 56.0695 19.5336V18.3941ZM59.6317 19.2508C60.4761 19.2456 61.3198 19.3 62.1563 19.4136V18.2913C61.3262 18.2071 60.4921 18.167 59.6576 18.1713L59.6317 19.2508ZM70.1366 31.5107L48.4178 28.8291C48.755 25.4964 48.8242 23.8429 49.0749 20.3732C49.3256 16.9034 49.5504 13.3565 49.7493 9.55259H68.5717C68.7706 13.3565 69.004 16.9634 69.2461 20.3732C69.4882 23.783 69.7994 28.2723 70.1366 31.5107ZM67.1019 21.2299C66.6105 20.8622 66.0799 20.549 65.5196 20.2961C64.7726 19.9645 63.9892 19.7201 63.1852 19.5678V18.4027C64.4638 18.5489 65.7187 18.854 66.9203 19.3108C66.9203 19.0966 66.8684 18.9081 66.8425 18.7711C66.8159 18.5997 66.7664 18.4326 66.6955 18.2742C66.6508 18.1835 66.5892 18.1021 66.5139 18.0343C66.16 17.7245 65.7201 17.5274 65.2516 17.4688C64.4747 17.3357 63.6883 17.2641 62.8999 17.2546C61.9056 17.2546 60.6519 17.2118 59.1475 17.2118C57.6431 17.2118 56.4067 17.2118 55.4124 17.2546C54.6268 17.2618 53.8431 17.3335 53.0694 17.4688C52.6046 17.5404 52.1683 17.7359 51.807 18.0343C51.7369 18.1066 51.6759 18.1872 51.6255 18.2742C51.5545 18.4326 51.5051 18.5997 51.4785 18.7711C51.4785 18.9852 51.4007 19.3022 51.3488 19.7049C51.6082 19.5764 51.8849 19.4564 52.1615 19.3451C53.0866 18.9778 54.049 18.7107 55.032 18.5483V19.782C54.5548 19.9088 54.0892 20.075 53.64 20.2789C52.7201 20.6822 51.8822 21.2484 51.1672 21.9495C51.1672 22.6778 51.1154 23.2775 51.1672 23.7316C51.1628 24.1699 51.2121 24.6072 51.3142 25.0338C51.5159 25.3098 51.7872 25.5284 52.101 25.6678C52.5708 25.8546 53.0663 25.9701 53.5708 26.0105C54.1847 26.0876 54.9628 26.139 55.8793 26.1647C56.7958 26.1904 57.8852 26.2075 59.1821 26.2075C60.479 26.2075 61.603 26.2075 62.5108 26.1647C63.4187 26.1218 64.24 26.0876 64.828 26.0105C65.3296 25.9693 65.8221 25.8538 66.2891 25.6678C66.6029 25.5284 66.8742 25.3098 67.0759 25.0338C67.1773 24.6069 67.2295 24.1701 67.2316 23.7316C67.2056 23.1318 67.1797 22.2751 67.1019 21.2128V21.2299ZM70.4825 34.9376L48.1757 32.6673L47.1382 39.8296H71.079L70.4825 34.9376ZM14.6983 1.79914L12.8826 0L7.78145 5.99714L8.64605 6.85388L14.6983 1.79914ZM78.2466 52.2608C78.0179 52.2708 77.7892 52.2389 77.5722 52.1666C77.4114 52.1206 77.2635 52.0385 77.1399 51.9267C77.0425 51.8494 76.9553 51.7601 76.8805 51.6611C76.8324 51.5849 76.7775 51.5132 76.7163 51.4469C76.6922 51.417 76.6587 51.3959 76.6211 51.387C76.6042 51.3868 76.5878 51.3929 76.5751 51.4039C76.5623 51.415 76.5541 51.4303 76.552 51.4469C76.5464 51.5154 76.5464 51.5841 76.552 51.6525C76.552 51.7125 76.552 51.7896 76.552 51.8839V52.1666H76.0851C76.0851 51.6782 76.0851 51.3099 76.0851 50.9243C76.0851 50.5388 76.0851 50.316 76.0851 50.0676C76.0851 49.8191 76.0851 49.6735 76.0851 49.5364V48.3456C76.0851 48.2085 76.0851 48.0371 76.0851 47.8229C76.0851 47.6088 76.0851 47.3346 76.0851 46.9662C76.0851 46.5978 76.0851 46.2123 76.0851 45.7239H76.5952C76.5952 46.0581 76.5952 46.3665 76.5952 46.6492C76.5952 46.9319 76.5952 47.189 76.5952 47.4203V48.3884C76.5898 48.4511 76.5898 48.5142 76.5952 48.5769C76.5973 48.5935 76.6055 48.6088 76.6183 48.6199C76.631 48.6309 76.6474 48.637 76.6644 48.6368C76.7015 48.6323 76.7355 48.6139 76.7595 48.5854C76.819 48.5207 76.8738 48.452 76.9238 48.3798C76.9954 48.2732 77.0829 48.1779 77.1831 48.0971C77.3138 47.9976 77.4598 47.9194 77.6154 47.8658C77.8334 47.7976 78.0613 47.7658 78.2898 47.7715C78.5455 47.7536 78.8018 47.7945 79.0388 47.8911C79.2758 47.9877 79.487 48.1374 79.6559 48.3284C79.956 48.8365 80.1142 49.4146 80.1142 50.0033C80.1142 50.5921 79.956 51.1702 79.6559 51.6782C79.4861 51.8812 79.2692 52.0402 79.0237 52.1417C78.7782 52.2431 78.5116 52.284 78.2466 52.2608ZM78.0996 51.0528C78.5057 51.082 78.9115 50.9926 79.2668 50.7958C79.3947 50.7128 79.498 50.5978 79.5664 50.4623C79.6347 50.3269 79.6656 50.1759 79.6559 50.0248C79.6641 49.875 79.6324 49.7258 79.5641 49.592C79.4959 49.4582 79.3933 49.3445 79.2668 49.2623C78.9115 49.0654 78.5057 48.9761 78.0996 49.0052C77.6996 48.9832 77.3014 49.0722 76.9497 49.2623C76.8235 49.3463 76.7218 49.4618 76.655 49.5972C76.5882 49.7326 76.5586 49.883 76.5693 50.0333C76.5571 50.185 76.5859 50.3372 76.6528 50.4743C76.7196 50.6113 76.8221 50.7282 76.9497 50.813C77.3036 50.9963 77.7008 51.0821 78.0996 51.0614V51.0528ZM80.581 53.8458V52.5607L80.8577 52.6806C81.0095 52.7404 81.1656 52.7891 81.3246 52.8263C81.5234 52.8687 81.7264 52.8888 81.9298 52.8862C82.1625 52.8918 82.3942 52.854 82.6129 52.7749C82.7891 52.7096 82.9507 52.6106 83.0884 52.4836C83.148 52.4149 83.2001 52.3403 83.244 52.2608C83.2894 52.1785 83.3188 52.0884 83.3305 51.9952H81.1344C81.1344 51.6782 81.0393 51.3784 80.996 51.0871C80.9528 50.7958 80.9009 50.5045 80.8404 50.2304C80.7799 49.9562 80.728 49.5793 80.6588 49.2023C80.5897 48.8253 80.5119 48.4055 80.4168 47.9258H80.9874C80.9874 48.2427 81.0566 48.5426 81.0998 48.7825C81.143 49.0224 81.169 49.3051 81.2035 49.5193C81.2381 49.7335 81.2727 49.9134 81.2987 50.059C81.3246 50.2047 81.3505 50.3075 81.3678 50.3674C81.3942 50.4402 81.4388 50.5051 81.4975 50.5559C81.5807 50.6155 81.6802 50.6484 81.7828 50.6502H82.4313H83.0797C83.1823 50.6484 83.2819 50.6155 83.3651 50.5559C83.4237 50.5067 83.4659 50.441 83.4861 50.3674C83.4861 50.2989 83.4861 50.1961 83.5553 50.0505C83.6244 49.9048 83.6244 49.7249 83.659 49.5107C83.6936 49.2965 83.7368 49.0566 83.7714 48.7825C83.806 48.5083 83.8492 48.217 83.8838 47.9258H84.4631C84.3939 48.3141 84.3248 48.6825 84.2556 49.0309C84.1864 49.3822 84.1259 49.7078 84.074 50.0162C84.0221 50.3246 83.9703 50.5902 83.927 50.8729C83.8838 51.1556 83.8406 51.327 83.8147 51.5069C83.7887 51.6868 83.7628 51.8325 83.7541 51.9353C83.7148 52.2242 83.657 52.5103 83.5812 52.792C83.5258 52.9698 83.4473 53.1397 83.3478 53.2975C83.2588 53.4318 83.1543 53.5554 83.0365 53.6659C82.8625 53.8299 82.6477 53.9452 82.414 54C82.1537 54.0634 81.8866 54.0951 81.6186 54.0942C81.4099 54.0958 81.2016 54.0785 80.996 54.0428C80.8542 53.988 80.7156 53.925 80.581 53.8544V53.8458ZM89.4864 52.2608C88.9816 52.2829 88.48 52.1705 88.0339 51.9353C87.63 51.7071 87.323 51.342 87.1693 50.9072C86.803 49.744 86.803 48.4978 87.1693 47.3346C87.3294 46.9056 87.635 46.5452 88.0339 46.3151C88.4859 46.095 88.9828 45.9806 89.4864 45.9806C89.9901 45.9806 90.487 46.095 90.939 46.3151C91.3388 46.5441 91.6448 46.9049 91.8036 47.3346C92.1699 48.4978 92.1699 49.744 91.8036 50.9072C91.6479 51.3408 91.3413 51.7053 90.939 51.9353C90.4929 52.1705 89.9913 52.2829 89.4864 52.2608ZM89.4864 50.6673C89.8963 50.6808 90.3055 50.6258 90.6969 50.5045C90.9755 50.4218 91.2168 50.2463 91.3799 50.0076C91.5307 49.7474 91.6055 49.4508 91.5961 49.1509C91.6074 48.8508 91.5324 48.5537 91.3799 48.2941C91.2178 48.0528 90.9765 47.8742 90.6969 47.7887C89.9033 47.5829 89.0696 47.5829 88.276 47.7887C87.9942 47.8744 87.7502 48.0527 87.5843 48.2941C87.4318 48.5537 87.3568 48.8508 87.3682 49.1509C87.3587 49.4508 87.4336 49.7474 87.5843 50.0076C87.7511 50.2464 87.9951 50.4217 88.276 50.5045C88.6664 50.6316 89.0756 50.6924 89.4864 50.6844V50.6673ZM92.6941 52.158V51.1556H93.2648C93.3855 51.1668 93.5071 51.1668 93.6279 51.1556C93.6831 51.1508 93.7364 51.1332 93.7835 51.1042C93.8099 51.0858 93.8284 51.0583 93.8354 51.0271C93.8438 50.9703 93.8438 50.9126 93.8354 50.8558C93.8419 50.7474 93.8419 50.6386 93.8354 50.5302C93.8354 50.3931 93.8354 50.2047 93.8354 49.9819V48.2684C93.8354 48.0371 93.8354 47.8572 93.8354 47.7116C93.8416 47.6003 93.8416 47.4887 93.8354 47.3774C93.843 47.3234 93.843 47.2687 93.8354 47.2147C93.8335 47.1975 93.8278 47.181 93.8189 47.1662C93.8099 47.1514 93.7979 47.1387 93.7835 47.129C93.741 47.0973 93.6897 47.0794 93.6365 47.0776H93.3253H93.0659H92.8065V45.7582H94.3369C94.3369 46.0495 94.3369 46.298 94.3369 46.5036C94.3369 46.7092 94.3369 46.9062 94.3369 47.0776C94.3369 47.2489 94.3369 47.4374 94.3369 47.6259V49.228C94.3369 49.5535 94.3369 49.8191 94.3369 50.0333C94.3369 50.2475 94.3369 50.4188 94.3369 50.5474C94.3369 50.6759 94.3369 50.7787 94.3369 50.8558C94.3369 50.9329 94.3369 50.9843 94.3369 51.0186C94.3439 51.0498 94.3624 51.0773 94.3887 51.0957C94.4395 51.125 94.4951 51.1454 94.553 51.1556H94.8989H95.409V52.1752L92.6941 52.158ZM97.7434 52.2523C97.4893 52.271 97.2342 52.2322 96.9975 52.1387C96.7608 52.0451 96.5487 51.8994 96.3773 51.7125C96.0361 51.2272 95.8743 50.6402 95.9191 50.0505C95.8741 49.4446 96.0355 48.8413 96.3773 48.337C96.5427 48.1407 96.7529 47.9863 96.9904 47.8865C97.228 47.7867 97.4861 47.7443 97.7434 47.763C97.9747 47.7574 98.2054 47.7892 98.4264 47.8572C98.5804 47.9147 98.7258 47.9926 98.8587 48.0885C98.9542 48.1717 99.0385 48.2667 99.1095 48.3713L99.2738 48.5769C99.2977 48.6054 99.3317 48.6238 99.3689 48.6283C99.3689 48.6283 99.438 48.6283 99.438 48.5683C99.4437 48.5027 99.4437 48.4368 99.438 48.3713C99.438 48.3113 99.438 48.2342 99.438 48.1399C99.4466 48.0459 99.4466 47.9513 99.438 47.8572H99.9481C99.9481 48.0286 99.9481 48.1999 99.9481 48.3884C99.9481 48.5769 99.9481 48.7654 99.9481 48.9624C99.9481 49.1595 99.9481 49.3394 99.9481 49.5107V50.5474C99.9481 50.7273 99.9481 50.9072 99.9481 51.0957C99.9481 51.2842 99.9481 51.4641 99.9481 51.644C99.9481 51.8239 99.9481 52.0038 99.9481 52.1666H99.4294C99.4379 52.0725 99.4379 51.9779 99.4294 51.8839C99.4294 51.7896 99.4294 51.7125 99.4294 51.6525C99.435 51.5841 99.435 51.5154 99.4294 51.4469C99.4295 51.4383 99.4277 51.4297 99.4241 51.4218C99.4205 51.4139 99.4153 51.4069 99.4087 51.4012C99.4021 51.3955 99.3944 51.3913 99.386 51.3888C99.3777 51.3864 99.3689 51.3857 99.3602 51.387C99.3226 51.3959 99.2892 51.417 99.2651 51.4469L99.1008 51.6611C99.027 51.7582 98.9429 51.8472 98.8501 51.9267C98.7239 52.0349 98.5769 52.1166 98.4178 52.1666C98.2005 52.2378 97.9721 52.2697 97.7434 52.2608V52.2523ZM97.8904 51.07C98.3037 51.0985 98.7168 51.0125 99.0835 50.8215C99.2098 50.7375 99.3114 50.622 99.3782 50.4866C99.445 50.3512 99.4746 50.2008 99.464 50.0505C99.4762 49.8987 99.4473 49.7465 99.3805 49.6095C99.3136 49.4725 99.2111 49.3556 99.0835 49.2708C98.7168 49.0798 98.3037 48.9938 97.8904 49.0224C97.4817 48.9945 97.0735 49.0837 96.7145 49.2794C96.5883 49.3634 96.4866 49.4789 96.4198 49.6143C96.3531 49.7497 96.3235 49.9001 96.3341 50.0505C96.325 50.1994 96.3553 50.3481 96.4221 50.4818C96.4888 50.6155 96.5896 50.7297 96.7145 50.813C97.0717 51.0146 97.48 51.1098 97.8904 51.0871V51.07ZM90.2386 44.3189L89.8409 43.9248L88.7256 45.227L88.9244 45.4241L90.2386 44.3189Z" fill="#333333"/>
</svg>
