<svg width="100" height="46" viewBox="0 0 100 46" fill="none" xmlns="http://www.w3.org/2000/svg">
<g clip-path="url(#clip0_2103_839)">
<path d="M54.4253 21.9912C54.3387 22.0878 54.2334 22.1658 54.1156 22.2205C53.9979 22.2752 53.8702 22.3055 53.7403 22.3094C53.3355 22.3094 53.0709 21.9369 53.0709 21.3549V12.9123C53.0709 10.8947 51.9266 9.67645 49.9184 9.67645C47.4665 9.67645 46.1354 12.0975 45.5438 13.8745V12.9123C45.5438 10.8947 44.3996 9.67645 42.4303 9.67645C40.0017 9.67645 38.6395 12.0975 38.0479 13.8435V10.0877H32.8405C32.8136 10.0877 32.7879 10.0983 32.7689 10.1173C32.75 10.1362 32.7393 10.1618 32.7393 10.1886V10.2895C33.4321 10.6154 33.6889 11.469 33.6889 12.5243V20.4238C33.6889 21.4791 33.4321 22.3404 32.7393 22.6586V22.7594C32.7392 22.787 32.7496 22.8135 32.7684 22.8336C32.7872 22.8538 32.813 22.8661 32.8405 22.8681H38.873C38.9008 22.8648 38.9266 22.8523 38.9464 22.8326C38.9662 22.8129 38.9787 22.7871 38.982 22.7594V22.6586C38.2892 22.3404 38.0168 21.4791 38.0168 20.4238V15.3644C38.0168 13.2847 39.6203 10.7085 40.531 10.7085C41.1148 10.7085 41.2238 11.2672 41.2238 11.8492V20.0513C41.2549 22.0999 42.368 23.2794 44.3685 23.2794C44.8635 23.2743 45.3526 23.1708 45.8071 22.975C46.2615 22.7791 46.6722 22.4948 47.015 22.1387L46.906 21.9757C46.8165 22.0728 46.7084 22.1509 46.5881 22.2056C46.4678 22.2602 46.3377 22.2902 46.2055 22.2939C45.8085 22.2939 45.5438 21.9214 45.5438 21.3394V15.3644C45.5438 13.2847 47.1395 10.7085 48.0503 10.7085C48.6341 10.7085 48.7508 11.2672 48.7508 11.8492V20.0513C48.7508 22.0999 49.895 23.2949 51.8644 23.2949C52.3595 23.2898 52.8485 23.1864 53.303 22.9905C53.7574 22.7946 54.1681 22.5103 54.5109 22.1542L54.4253 21.9912ZM67.907 21.9912C67.7266 22.1833 67.478 22.2975 67.2143 22.3094C66.8173 22.3094 66.5448 21.9369 66.5448 21.3549V14.6194C66.5448 11.7949 64.3264 9.67645 60.7069 9.67645C58.2472 9.67645 55.7096 10.8482 55.7096 13.0985C55.6915 13.4067 55.7368 13.7153 55.8426 14.0055C55.9485 14.2956 56.1126 14.5611 56.3251 14.7857C56.5376 15.0103 56.7939 15.1892 57.0782 15.3115C57.3626 15.4338 57.669 15.4969 57.9786 15.4969C58.2883 15.4969 58.5947 15.4338 58.8791 15.3115C59.1634 15.1892 59.4197 15.0103 59.6322 14.7857C59.8446 14.5611 60.0088 14.2956 60.1147 14.0055C60.2205 13.7153 60.2658 13.4067 60.2477 13.0985C59.9466 12.8586 59.7005 12.5571 59.5259 12.2145C59.3514 11.8719 59.2525 11.4959 59.2357 11.112C59.2357 10.336 59.6327 9.88597 60.2165 9.88597C61.5009 9.88597 62.217 11.6086 62.217 12.9433C62.217 17.5992 54.4331 15.2713 54.4331 20.0513C54.4315 20.4882 54.5191 20.9209 54.6907 21.323C54.8622 21.7251 55.114 22.0882 55.4307 22.3901C55.7475 22.6921 56.1226 22.9267 56.5332 23.0796C56.9438 23.2324 57.3813 23.3004 57.8191 23.2794C60.5201 23.2794 61.711 20.9902 62.217 19.1822V20.0358C62.217 22.0999 63.369 23.2794 65.385 23.2794C65.8779 23.2749 66.3648 23.1716 66.8168 22.9756C67.2688 22.7796 67.6766 22.495 68.016 22.1387L67.907 21.9912ZM62.217 17.5992C62.217 19.6788 60.9404 22.1775 59.7417 22.1775C59.1813 22.1775 58.7843 21.6188 58.7843 20.8195C58.7843 18.5304 61.3997 17.0715 62.217 14.0918V17.5992ZM68.989 5.23009C68.7946 5.21622 68.5995 5.24247 68.4157 5.3072C68.232 5.37193 68.0636 5.47376 67.9212 5.60631C67.7787 5.73886 67.6652 5.89929 67.5878 6.07756C67.5104 6.25583 67.4706 6.44811 67.4711 6.64238C67.7803 6.76231 68.0429 6.97756 68.2207 7.25673C68.3986 7.5359 68.4823 7.8644 68.4597 8.19433C68.5117 8.82132 68.3499 9.44744 68.0004 9.97132L68.1873 10.111C69.5494 8.90823 70.5224 8.0081 70.5224 6.80533C70.5368 6.59874 70.5074 6.39145 70.436 6.19697C70.3647 6.00248 70.253 5.82515 70.1084 5.67654C69.9637 5.52793 69.7893 5.41137 69.5964 5.33445C69.4035 5.25753 69.1966 5.22197 68.989 5.23009ZM74.0641 11.5931C74.0641 10.5223 74.7802 9.88597 76.4616 9.88597C77.7693 9.88597 78.462 10.6619 78.462 11.3758C78.4848 11.6687 78.4237 11.9619 78.2859 12.2215C78.1482 12.4812 77.9393 12.6965 77.6836 12.8424C77.7176 13.4195 77.9714 13.9617 78.3932 14.3583C78.815 14.7549 79.3728 14.9758 79.9526 14.9758C80.5324 14.9758 81.0903 14.7549 81.5121 14.3583C81.9339 13.9617 82.1877 13.4195 82.2217 12.8424C82.2217 10.5766 79.1548 9.67645 76.4304 9.67645C73.0678 9.67645 70.826 11.3526 70.826 13.6417C70.826 18.2122 79.2793 18.2976 79.2793 21.4015C79.2793 22.5732 78.3297 23.1086 76.6639 23.1086C75.1072 23.1086 74.3288 22.387 74.3288 21.2696C74.3392 21.0011 74.4087 20.7381 74.5325 20.4994C74.6562 20.2607 74.8312 20.0521 75.0449 19.8883C75.0449 19.2894 74.8062 18.7151 74.3814 18.2916C73.9567 17.8681 73.3805 17.6302 72.7798 17.6302C72.179 17.6302 71.6029 17.8681 71.1781 18.2916C70.7533 18.7151 70.5146 19.2894 70.5146 19.8883C70.5146 21.9602 72.8498 23.3182 76.5083 23.3182C80.1667 23.3182 82.5097 21.6188 82.5097 19.3296C82.5097 14.7436 74.0641 14.6738 74.0641 11.5931ZM13.5052 44.6188C13.4178 44.7163 13.3112 44.7948 13.192 44.8496C13.0728 44.9043 12.9436 44.934 12.8125 44.9369C12.4155 44.9369 12.143 44.5644 12.143 43.9825V37.247C12.143 34.4224 9.93241 32.304 6.30511 32.304C3.84539 32.304 1.30783 33.468 1.30783 35.726C1.29487 36.0285 1.34456 36.3304 1.45378 36.6128C1.56301 36.8953 1.72944 37.1523 1.9427 37.3678C2.15595 37.5833 2.41146 37.7527 2.69328 37.8654C2.97511 37.9781 3.2772 38.0317 3.58073 38.0229C3.88669 38.0321 4.19121 37.9776 4.47487 37.863C4.75853 37.7483 5.01511 37.576 5.22823 37.3569C5.44135 37.1379 5.60635 36.877 5.71269 36.5908C5.81903 36.3047 5.86438 35.9996 5.84586 35.695C5.54732 35.4533 5.30349 35.1513 5.13042 34.8089C4.95736 34.4666 4.85897 34.0915 4.84173 33.7085C4.84173 32.9325 5.23093 32.4825 5.8225 32.4825C7.09907 32.4825 7.83076 34.2051 7.83076 35.5398C7.83076 40.1957 0.000132678 37.8677 0.000132678 42.6478C-0.00387843 43.0884 0.083098 43.5252 0.255653 43.9309C0.428208 44.3367 0.682651 44.7027 1.00316 45.0062C1.32366 45.3097 1.70338 45.5442 2.11869 45.6951C2.534 45.8461 2.97603 45.9102 3.41727 45.8836C6.11829 45.8836 7.30923 43.6022 7.83076 41.7864V42.6788C7.83076 44.7274 8.96721 45.9146 10.9443 45.9146C11.4388 45.9102 11.9274 45.8077 12.3818 45.6132C12.8361 45.4187 13.2471 45.1361 13.5909 44.7817L13.5052 44.6188ZM7.83076 40.2267C7.83076 42.3063 6.53862 44.805 5.3399 44.805C4.77946 44.805 4.38248 44.2463 4.38248 43.447C4.38248 41.1191 6.99788 39.6991 7.83076 36.7193V40.2267ZM20.8221 29.107C17.187 29.107 14.9764 31.2331 14.9764 34.0499V35.0665H14.0112V35.2837H14.9764V43.0435C14.9764 44.0989 14.7117 44.9602 14.0112 45.2783V45.3792C14.013 45.4074 14.0251 45.434 14.0451 45.454C14.0652 45.474 14.0919 45.486 14.1202 45.4879H20.1449C20.1746 45.4879 20.2032 45.4767 20.2248 45.4566C20.2465 45.4364 20.2597 45.4087 20.2617 45.3792V45.2783C19.5689 44.9602 19.2965 44.0989 19.2965 43.0435V35.2837L22.6358 35.5398V35.0665H19.2965V32.3738C19.2965 31.0469 20.0204 29.3242 21.2969 29.3242C21.8885 29.3242 22.2855 29.7976 22.2855 30.5425C22.2694 30.9285 22.17 31.3065 21.9941 31.6506C21.8181 31.9948 21.5697 32.2971 21.2658 32.5368C21.2571 32.8363 21.3101 33.1344 21.4213 33.4128C21.5326 33.6912 21.6998 33.9439 21.9128 34.1555C22.1257 34.367 22.3798 34.5329 22.6594 34.6428C22.939 34.7528 23.2383 34.8045 23.5387 34.7949C24.0505 34.8061 24.5506 34.6417 24.9554 34.3293C25.2047 34.1391 25.4092 33.8966 25.5545 33.6191C25.6997 33.3416 25.7822 33.0357 25.796 32.723C25.8035 32.6612 25.8035 32.5986 25.796 32.5368C25.8116 30.2632 23.274 29.107 20.8221 29.107ZM34.514 28.2534C31.6028 28.2534 30.3574 31.4426 29.3611 36.471V32.723H24.1848C24.1556 32.7246 24.128 32.7364 24.1066 32.7562C24.0853 32.7761 24.0716 32.8028 24.068 32.8316V32.9325C24.323 33.0708 24.5383 33.2716 24.6936 33.5161C24.8489 33.7605 24.939 34.0404 24.9554 34.3293C25.0135 34.6047 25.0397 34.8859 25.0332 35.1673V43.0513C25.0332 44.1066 24.7686 44.968 24.068 45.2861V45.387C24.0716 45.4159 24.0853 45.4426 24.1066 45.4624C24.128 45.4823 24.1556 45.494 24.1848 45.4956H30.2173C30.2442 45.4921 30.269 45.4793 30.2875 45.4594C30.306 45.4396 30.3169 45.414 30.3185 45.387V45.2861C29.6257 44.968 29.3611 44.1066 29.3611 43.0513V38.3954C29.3611 36.7736 30.373 31.4814 32.2178 31.4814C32.5603 31.4814 33.2063 32.1643 34.3272 32.1643C35.7906 32.1643 36.7558 31.3883 36.7558 30.2011C36.7558 29.0138 35.9774 28.2534 34.514 28.2534ZM37.3629 32.304C36.0075 32.2778 34.6749 32.6545 33.535 33.3862C32.3951 34.1179 31.4996 35.1713 30.9625 36.4123C30.4255 37.6533 30.2713 39.0256 30.5196 40.3543C30.7678 41.6829 31.4073 42.9078 32.3565 43.8728C33.3058 44.8378 34.5217 45.4992 35.8494 45.7726C37.1771 46.0461 38.5564 45.9192 39.8115 45.4083C41.0666 44.8973 42.1407 44.0253 42.8968 42.9035C43.6529 41.7817 44.0569 40.4608 44.0571 39.1093C44.0664 38.2241 43.9005 37.3458 43.569 36.5246C43.2375 35.7034 42.7468 34.9554 42.1251 34.3233C41.5034 33.6913 40.7628 33.1876 39.9456 32.8411C39.1285 32.4946 38.2509 32.3121 37.3629 32.304ZM37.3629 45.7129C36.1331 45.7129 35.1212 42.7331 35.1212 39.1093C35.1212 35.4855 36.1331 32.5135 37.3629 32.5135C38.5928 32.5135 39.6047 35.4933 39.6047 39.1093C39.6047 42.7254 38.6162 45.7129 37.3629 45.7129ZM66.1634 44.6188C65.983 44.8108 65.7344 44.925 65.4707 44.9369C65.0659 44.9369 64.7935 44.5644 64.7935 43.9825V35.5398C64.7935 33.5223 63.6492 32.304 61.6799 32.304C59.2202 32.304 57.8891 34.725 57.3053 36.502V35.5398C57.3053 33.5223 56.1611 32.304 54.1918 32.304C51.7632 32.304 50.4088 34.725 49.8172 36.471V32.723H44.5709C44.5425 32.7248 44.5159 32.7369 44.4958 32.7569C44.4758 32.7769 44.4637 32.8034 44.4619 32.8316V32.9325C45.1624 33.2584 45.4271 34.112 45.4271 35.1673V43.0513C45.4271 44.1066 45.1624 44.968 44.4619 45.2861V45.387C44.4637 45.4152 44.4758 45.4418 44.4958 45.4618C44.5159 45.4818 44.5425 45.4938 44.5709 45.4956H50.5956C50.6253 45.4957 50.6538 45.4845 50.6755 45.4643C50.6972 45.4441 50.7104 45.4165 50.7124 45.387V45.2861C50.0118 44.968 49.7472 44.1066 49.7472 43.0513V38.0229C49.7472 35.9433 51.3039 33.3671 52.2536 33.3671C52.8374 33.3671 52.9541 33.9258 52.9541 34.5078V42.6788C52.9541 44.7274 54.0984 45.9146 56.0677 45.9146C56.5623 45.911 57.0512 45.809 57.5056 45.6144C57.9601 45.4199 58.371 45.1368 58.7142 44.7817L58.5975 44.6188C58.5109 44.7153 58.4056 44.7934 58.2878 44.8481C58.17 44.9028 58.0423 44.933 57.9125 44.9369C57.5077 44.9369 57.2431 44.5644 57.2431 43.9825V38.0229C57.2431 35.9433 58.8466 33.3671 59.7495 33.3671C60.3411 33.3671 60.4423 33.9258 60.4423 34.5078V42.6788C60.4423 44.7274 61.5865 45.9146 63.5558 45.9146C64.0508 45.9132 64.5403 45.8122 64.9951 45.6175C65.4499 45.4228 65.8605 45.1385 66.2024 44.7817L66.1634 44.6188ZM79.6374 44.6188C79.5479 44.7158 79.4398 44.794 79.3195 44.8486C79.1991 44.9033 79.069 44.9333 78.9369 44.9369C78.5477 44.9369 78.2752 44.5644 78.2752 43.9825V37.247C78.2752 34.4224 76.0646 32.304 72.4295 32.304C69.9698 32.304 67.44 33.468 67.44 35.726C67.4219 36.0342 67.4671 36.3429 67.573 36.633C67.6788 36.9231 67.843 37.1886 68.0555 37.4132C68.268 37.6378 68.5242 37.8168 68.8086 37.9391C69.0929 38.0614 69.3993 38.1244 69.709 38.1244C70.0187 38.1244 70.3251 38.0614 70.6095 37.9391C70.8938 37.8168 71.1501 37.6378 71.3625 37.4132C71.575 37.1886 71.7392 36.9231 71.845 36.633C71.9509 36.3429 71.9961 36.0342 71.978 35.726C71.6769 35.4861 71.4308 35.1847 71.2563 34.842C71.0818 34.4994 70.9828 34.1235 70.9661 33.7395C70.9661 32.9636 71.3631 32.5135 71.9547 32.5135C73.2312 32.5135 73.9551 34.2362 73.9551 35.5709C73.9551 40.2267 66.1323 37.8988 66.1323 42.6788C66.1283 43.1195 66.2153 43.5563 66.3878 43.962C66.5604 44.3677 66.8148 44.7337 67.1353 45.0372C67.4558 45.3407 67.8356 45.5752 68.2509 45.7262C68.6662 45.8771 69.1082 45.9413 69.5494 45.9146C72.2427 45.9146 73.4414 43.6333 73.9551 41.8175V42.6788C73.9551 44.7274 75.0994 45.9146 77.0687 45.9146C77.5633 45.911 78.0522 45.809 78.5067 45.6144C78.9611 45.4199 79.372 45.1368 79.7152 44.7817L79.6374 44.6188ZM73.9474 40.2267C73.9474 42.3063 72.663 44.805 71.4565 44.805C70.8961 44.805 70.5069 44.2463 70.5069 43.447C70.5069 41.1191 73.1223 39.6991 73.9474 36.7193V40.2267ZM89.881 32.304C87.2345 32.304 86.2459 34.6319 85.4209 37.247V32.723H80.2368C80.2099 32.7266 80.185 32.7394 80.1666 32.7592C80.1481 32.779 80.1371 32.8046 80.1356 32.8316V32.9325C80.8283 33.2584 81.1008 34.112 81.1008 35.1673V43.0513C81.1008 44.1066 80.8283 44.968 80.1356 45.2861V45.387C80.1371 45.414 80.1481 45.4396 80.1666 45.4594C80.185 45.4793 80.2099 45.4921 80.2368 45.4956H86.2771C86.3054 45.4938 86.332 45.4818 86.3521 45.4618C86.3722 45.4418 86.3842 45.4152 86.3861 45.387V45.2861C85.6855 44.968 85.4209 44.1066 85.4209 43.0513V38.3954C85.3873 38.058 85.4266 37.7172 85.5361 37.3962C85.6457 37.0751 85.823 36.7812 86.056 36.5342C86.289 36.2872 86.5725 36.0928 86.8872 35.9641C87.2019 35.8354 87.5406 35.7754 87.8806 35.7881C88.2721 35.7755 88.6606 35.8613 89.0102 36.0375C89.3598 36.2138 89.6592 36.475 89.881 36.7969C90.4818 36.7969 91.0579 36.559 91.4827 36.1355C91.9075 35.712 92.1462 35.1377 92.1462 34.5388C92.1462 33.9399 91.9075 33.3656 91.4827 32.9421C91.0579 32.5186 90.4818 32.2807 89.881 32.2807V32.304ZM100 33.2041V32.723H97.9919V30.17H97.735C97.1501 30.956 96.39 31.5958 95.5147 32.0388C94.6393 32.4819 93.6727 32.7161 92.691 32.723V32.9325H93.6718V42.4072C93.6718 44.7352 94.9562 45.9146 97.1979 45.9146C98.2431 45.9089 99.2462 45.5033 100 44.7817L99.8912 44.6188C99.6622 44.8183 99.3701 44.9309 99.0661 44.9369C98.3422 44.9369 97.9919 44.3549 97.9919 43.447V32.9325L100 33.2041ZM37.2306 0.938934C37.2358 0.61981 37.1858 0.302185 37.0827 0C36.7075 0.732048 36.0961 1.31695 35.3469 1.66059C34.3583 2.22706 33.2997 2.66937 32.2878 3.21255C31.7448 3.47945 31.2375 3.81314 30.7777 4.2058C29.3766 5.48617 29.1276 7.139 29.2677 8.90823C29.2677 9.15655 29.3766 9.17982 29.5946 9.08671C30.5845 8.67657 31.5245 8.15592 32.3968 7.53475C33.7279 6.63782 34.8011 5.41012 35.5104 3.97301C35.6505 3.6859 35.7672 3.37551 35.9151 3.00304C35.9151 3.13495 35.9151 3.18927 35.9151 3.23583C35.7579 4.24941 35.3632 5.21178 34.7631 6.04487C33.9576 7.07348 32.9514 7.92873 31.8052 8.55904C31.0813 8.99359 30.3107 9.33502 29.6335 9.81613C29.2252 10.1015 28.8785 10.4656 28.6138 10.887C28.4959 11.0711 28.4541 11.2936 28.4971 11.5078C28.6431 11.2684 28.8353 11.0601 29.0623 10.895C29.2894 10.7298 29.547 10.6111 29.8203 10.5455C31.1175 10.1343 32.3777 9.61515 33.5877 8.99359C34.4927 8.52103 35.2777 7.84917 35.8833 7.029C36.4888 6.20883 36.899 5.26192 37.0827 4.26012C37.2575 3.16216 37.3071 2.04801 37.2306 0.938934ZM31.8441 15.279C31.8214 14.9014 31.7746 14.5256 31.704 14.1538C31.6665 13.9109 31.6065 13.6719 31.525 13.4399C31.4645 13.1998 31.3811 12.9659 31.2759 12.7416C31.2759 12.6484 31.1981 12.5553 31.1592 12.4622C31.1202 12.3691 31.1358 12.4157 31.1358 12.3303C30.9235 11.8719 30.6625 11.4375 30.3574 11.0344C29.4389 10.6309 28.2869 12.1596 28.2869 12.1596C28.1385 11.7226 28.134 11.2498 28.274 10.8102C28.414 10.3705 28.6912 9.98685 29.0653 9.71525C29.0335 9.68935 28.9996 9.66599 28.9641 9.64541C28.7785 9.49598 28.5835 9.3586 28.3803 9.23414C28.2869 9.17206 28.1935 9.12551 28.1156 9.06343L28.0222 9.00135C27.8367 8.89332 27.6443 8.79742 27.4462 8.71424C27.3398 8.66426 27.2306 8.62022 27.1193 8.58232C26.888 8.49082 26.6515 8.41309 26.411 8.34953L26.1307 8.28745L25.7416 8.20985C25.5625 8.20985 25.3757 8.16329 25.1967 8.14777C25.0254 8.14777 24.8542 8.14777 24.6752 8.14777C23.704 8.16794 22.7463 8.37865 21.8569 8.76788C20.9675 9.1571 20.1637 9.71721 19.4914 10.4162C18.8192 11.1152 18.2916 11.9394 17.939 12.8416C17.5863 13.7439 17.4154 14.7066 17.4361 15.6748C17.4286 16.7124 17.6315 17.7409 18.0328 18.6983C18.4341 19.6558 19.0254 20.5225 19.7713 21.2463C19.8569 21.3316 19.9503 21.4092 20.0282 21.4791C20.2042 21.6396 20.3914 21.7875 20.5886 21.9214C20.7792 22.058 20.9766 22.185 21.1802 22.3016C21.2891 22.3559 21.3981 22.4103 21.4993 22.4723C21.8112 22.6386 22.14 22.7713 22.4801 22.8681C23.1724 23.1001 23.898 23.2181 24.6284 23.2173C24.8386 23.2173 25.0488 23.2173 25.2512 23.2173C25.5129 23.1914 25.7728 23.1499 26.0296 23.0931C26.1779 23.0632 26.3237 23.0217 26.4655 22.969C26.5791 22.9425 26.6909 22.9088 26.8002 22.8681C27.2518 22.7308 27.6855 22.5406 28.0923 22.3016L28.3881 22.1154L28.6917 21.9214C28.8848 21.7854 29.0694 21.6377 29.2443 21.4791C29.5202 21.2373 29.7802 20.9781 30.0227 20.7031C30.1706 20.5324 30.3185 20.3306 30.4586 20.1444C31.4033 18.8334 31.9074 17.2579 31.8986 15.6437C31.8519 15.5196 31.8519 15.4032 31.8441 15.279ZM24.644 22.969C23.0872 22.969 21.7795 19.6866 21.7795 15.6748C21.7795 11.663 23.0795 8.36505 24.644 8.36505C26.2086 8.36505 27.4929 11.6397 27.4929 15.6748C27.4929 19.7099 26.193 22.969 24.644 22.969ZM17.7163 20.1289C17.0826 19.0704 16.6671 17.8964 16.4943 16.6758L15.35 9.69197C15.2099 9.13327 15.0932 8.62888 14.9375 8.14001C14.7334 7.44461 14.3187 6.82907 13.7502 6.37763C13.1817 5.92619 12.4872 5.66091 11.7616 5.61808C10.9832 5.55601 10.1426 5.57153 9.34083 5.61808C9.21049 5.60689 9.07925 5.62359 8.9559 5.66706C8.83255 5.71053 8.71994 5.77976 8.62561 5.87013C8.53127 5.9605 8.45739 6.06991 8.40891 6.19105C8.36043 6.31219 8.33847 6.44225 8.34449 6.57254C8.34449 7.139 8.71812 7.51147 9.38754 7.51923C10.057 7.52699 10.5629 7.51923 11.1545 7.51923C11.3999 7.48341 11.65 7.49793 11.8896 7.56189C12.1292 7.62586 12.3531 7.73793 12.5477 7.89123C12.7423 8.04453 12.9034 8.23583 13.0212 8.45341C13.139 8.67098 13.211 8.91025 13.2328 9.15655C14.089 12.9588 14.953 16.7611 15.7859 20.5789C15.791 20.9348 15.7166 21.2874 15.568 21.611C15.4823 21.8671 15.3656 22.0999 15.2722 22.3404H16.4943C16.7517 22.3373 17.0038 22.2662 17.2247 22.1343C17.4456 22.0024 17.6274 21.8144 17.7516 21.5896C17.8759 21.3648 17.9381 21.1111 17.9319 20.8545C17.9257 20.5979 17.8513 20.3475 17.7163 20.1289ZM18.4947 23.7139C18.0818 23.7139 17.6859 23.8774 17.3939 24.1685C17.102 24.4595 16.9379 24.8543 16.9379 25.2659C16.9441 25.6775 17.1141 26.0698 17.4104 26.3564C17.7068 26.6431 18.1052 26.8007 18.5181 26.7945C18.931 26.7884 19.3245 26.6189 19.612 26.3235C19.8996 26.0281 20.0577 25.6309 20.0515 25.2193C20.0395 24.8185 19.8723 24.4379 19.5849 24.1572C19.2976 23.8766 18.9125 23.7177 18.5103 23.7139H18.4947ZM27.9911 23.7139C27.5862 23.7137 27.1971 23.8708 26.9065 24.1519C26.6158 24.4329 26.4465 24.8158 26.4343 25.2193C26.4278 25.4249 26.4637 25.6296 26.5396 25.8208C26.6156 26.012 26.73 26.1857 26.8759 26.3311C27.0217 26.4765 27.196 26.5906 27.3878 26.6663C27.5796 26.742 27.7849 26.7777 27.9911 26.7713C28.404 26.7713 28.8 26.6077 29.0919 26.3167C29.3839 26.0257 29.5479 25.6309 29.5479 25.2193C29.536 24.8211 29.3709 24.4428 29.0869 24.1625C28.803 23.8823 28.4217 23.7217 28.0222 23.7139H27.9911Z" fill="#333333"/>
</g>
<defs>
<clipPath id="clip0_2103_839">
<rect width="100" height="46" fill="white"/>
</clipPath>
</defs>
</svg>
