<svg width="100" height="46" viewBox="0 0 100 46" fill="none" xmlns="http://www.w3.org/2000/svg">
<g clip-path="url(#clip0_2103_848)">
<path d="M51.1308 13.082H52.8186L54.3629 15.286H56.3376L54.5654 12.7815C55.0674 12.5872 55.4935 12.2396 55.7819 11.7891C56.0703 11.3387 56.2058 10.8089 56.1688 10.2769C56.1871 9.88385 56.1136 9.49186 55.9541 9.13137C55.7946 8.77088 55.5533 8.45157 55.249 8.19818C54.5201 7.66141 53.6248 7.39277 52.7173 7.43847H49.3418V15.286H51.1899L51.1308 13.082ZM53.8819 9.26679C54.0267 9.38977 54.1408 9.54415 54.2155 9.7179C54.2901 9.89166 54.3233 10.0801 54.3123 10.2686C54.3226 10.4582 54.2893 10.6477 54.2147 10.8227C54.1402 10.9978 54.0264 11.1537 53.8819 11.2788C53.5164 11.5433 53.0677 11.6706 52.6161 11.6377H51.1308V8.91615H52.6161C53.0663 8.88452 53.5137 9.00845 53.8819 9.26679Z" fill="#FC8E44"/>
<path d="M59.173 13.5996H62.8439L63.5527 15.2693H65.4768L61.9156 7.43011H60.1097L56.5823 15.2777H58.4641L59.173 13.5996ZM61.0042 9.22503L62.2616 12.2221H59.73L61.0042 9.22503Z" fill="#FC8E44"/>
<path d="M70.1012 15.2777L73.5358 7.43011H71.7046L69.2574 13.0403L66.8523 7.43011H64.8523L68.2869 15.2777H70.1012Z" fill="#FC8E44"/>
<path d="M80.3291 13.825H76.0169V12.0051H79.6962V10.5858H76.0169V8.89109H80.1857V7.43011H74.1857V15.2777H80.3291V13.825Z" fill="#FC8E44"/>
<path d="M89.0717 7.43011H87.2574V12.1971L83.308 7.43011H81.789V15.2777H83.6034V10.519L87.5527 15.2777H89.0717V7.43011Z" fill="#FC8E44"/>
<path d="M91.0042 8.89944L90.5063 10.686H91.6371L92.2869 9.07476C92.3797 8.8577 92.4472 8.69073 92.4894 8.5655C92.5293 8.46029 92.5576 8.35113 92.5738 8.23991C92.5738 8.13973 92.5738 8.0479 92.5738 7.96441C92.5811 7.81865 92.5579 7.67297 92.5056 7.5365C92.4533 7.40003 92.3731 7.27571 92.27 7.17131C92.1668 7.07102 92.0439 6.99264 91.909 6.94096C91.774 6.88928 91.6298 6.86539 91.4852 6.87077C91.1938 6.86467 90.9117 6.97269 90.7004 7.17131C90.5945 7.27406 90.5119 7.39791 90.4581 7.53465C90.4043 7.67138 90.3804 7.81788 90.3882 7.96441C90.3813 8.10712 90.4057 8.2496 90.4596 8.38215C90.5135 8.5147 90.5956 8.63419 90.7004 8.73247C90.7909 8.80546 90.8938 8.86199 91.0042 8.89944Z" fill="#FC8E44"/>
<path d="M99.7468 11.9717C99.5848 11.7016 99.3553 11.4773 99.0802 11.3205C98.7992 11.1522 98.4989 11.0176 98.1857 10.9198C97.865 10.8196 97.5359 10.7278 97.1983 10.6526C96.8608 10.5775 96.5654 10.519 96.2954 10.4439C96.0579 10.3881 95.8341 10.2859 95.6371 10.1434C95.5575 10.0866 95.4934 10.011 95.4507 9.92357C95.4079 9.83611 95.3879 9.73949 95.3924 9.64246C95.3912 9.47969 95.4446 9.32112 95.5443 9.19164C95.6691 9.04078 95.8366 8.9303 96.0253 8.8744C96.2986 8.79136 96.5834 8.75191 96.8692 8.75752C97.2372 8.76044 97.6031 8.81096 97.9578 8.90779C98.3418 9.01025 98.7105 9.1618 99.0549 9.35861L99.6371 7.99781C99.2487 7.77344 98.8273 7.61009 98.3882 7.5136C97.903 7.39032 97.4039 7.32861 96.903 7.32993C96.2674 7.31213 95.635 7.42587 95.0464 7.66387C94.597 7.84322 94.212 8.15139 93.9409 8.54881C93.6987 8.91278 93.5723 9.34026 93.5781 9.77603C93.5625 10.1341 93.6472 10.4894 93.8228 10.8029C93.9813 11.075 94.208 11.3022 94.481 11.4624C94.7632 11.6341 95.0667 11.7688 95.384 11.8631C95.705 11.9678 96.0319 12.0542 96.3629 12.122L97.2658 12.3474C97.5007 12.4104 97.7232 12.512 97.9241 12.6479C98.0047 12.7043 98.07 12.7795 98.1142 12.8669C98.1584 12.9543 98.18 13.0511 98.1772 13.1488C98.1809 13.3083 98.1236 13.4633 98.0169 13.5829C97.8848 13.7258 97.7154 13.8298 97.5274 13.8835C97.2533 13.9617 96.9688 13.9983 96.6836 13.992C96.2011 13.9931 95.7219 13.9141 95.2658 13.7582C94.8346 13.6285 94.4272 13.4312 94.0591 13.1739L93.4431 14.543C93.868 14.8446 94.3458 15.0654 94.8523 15.1942C95.4472 15.366 96.0638 15.4531 96.6836 15.453C97.3228 15.4716 97.9586 15.3549 98.5485 15.1107C98.99 14.9132 99.3649 14.5944 99.6287 14.1924C99.8761 13.8366 100.006 13.4136 100 12.9818C100.013 12.6283 99.9253 12.2783 99.7468 11.9717Z" fill="#FC8E44"/>
<path d="M50.0084 26.1223C50.4039 26.4872 50.8686 26.771 51.3755 26.9572C51.9162 27.1528 52.4876 27.2518 53.0633 27.2494C53.709 27.2603 54.3499 27.138 54.9452 26.8904C55.4955 26.676 55.9829 26.3287 56.3629 25.8802L55.173 24.7949C54.9256 25.0837 54.6212 25.3195 54.2785 25.4878C53.9373 25.6531 53.5613 25.7361 53.1814 25.7299C52.8322 25.735 52.4854 25.6726 52.1603 25.5463C51.8462 25.4328 51.5589 25.2566 51.3165 25.0287C51.0824 24.79 50.9013 24.5057 50.7848 24.1938C50.6752 23.877 50.6237 23.5434 50.6329 23.2087C50.6312 22.8608 50.6941 22.5156 50.8186 22.1902C50.9394 21.8928 51.1203 21.6229 51.3502 21.3971C51.5923 21.1667 51.8795 20.9877 52.1941 20.8711C52.5043 20.7545 52.8327 20.6924 53.1646 20.6875C53.543 20.6867 53.9171 20.7665 54.2616 20.9212C54.6065 21.0899 54.9113 21.3289 55.1561 21.6225L56.346 20.5455C55.9723 20.0896 55.4913 19.7313 54.9452 19.502C54.351 19.2611 53.7137 19.1418 53.0717 19.1514C52.4953 19.1483 51.9232 19.2502 51.384 19.4519C50.8776 19.6368 50.4146 19.9216 50.0229 20.289C49.6312 20.6564 49.3191 21.0987 49.1055 21.5891C48.6781 22.6303 48.6781 23.7954 49.1055 24.8366C49.3169 25.3204 49.6239 25.7575 50.0084 26.1223Z" fill="#FC8E44"/>
<path d="M63.9325 23.6428C64.2215 23.1886 64.3683 22.66 64.3544 22.1234C64.3787 21.7284 64.308 21.3333 64.1481 20.9705C63.9882 20.6077 63.7437 20.2875 63.4346 20.0363C62.707 19.497 61.8108 19.228 60.9029 19.2766H57.5274V27.1241H59.3249V24.9368H61.0126L62.5316 27.1325H64.4979L62.7342 24.6279C63.2283 24.4324 63.6476 24.0877 63.9325 23.6428ZM62.0759 21.1383C62.2207 21.2613 62.3349 21.4157 62.4095 21.5894C62.4842 21.7632 62.5173 21.9516 62.5063 22.1401C62.5167 22.3297 62.4834 22.5192 62.4088 22.6943C62.3342 22.8693 62.2204 23.0252 62.0759 23.1503C61.7105 23.4148 61.2617 23.5421 60.8101 23.5093H59.3249V20.771H60.8101C61.2604 20.7393 61.7077 20.8633 62.0759 21.1216V21.1383Z" fill="#FC8E44"/>
<path d="M72.7595 20.2951C72.3612 19.9296 71.8937 19.6459 71.3839 19.4603C70.2689 19.0604 69.0474 19.0604 67.9325 19.4603C67.425 19.6506 66.9584 19.9338 66.5569 20.2951C66.1665 20.6585 65.8537 21.0957 65.6371 21.5808C65.2093 22.619 65.2093 23.7817 65.6371 24.82C65.8517 25.3062 66.1647 25.7438 66.5569 26.1056C66.9554 26.4708 67.4229 26.7545 67.9325 26.9405C68.4883 27.1457 69.0776 27.2476 69.6709 27.241C70.2464 27.2424 70.8177 27.1435 71.3586 26.9488C71.8682 26.7628 72.3356 26.4791 72.7342 26.114C73.1285 25.7525 73.4393 25.3111 73.6455 24.82C73.8637 24.3073 73.9761 23.7566 73.9761 23.2004C73.9761 22.6441 73.8637 22.0935 73.6455 21.5808C73.4437 21.096 73.1419 20.6581 72.7595 20.2951ZM71.9156 24.2272C71.799 24.5248 71.6208 24.795 71.3924 25.0203C71.1674 25.2439 70.9009 25.4225 70.6076 25.5463C70.2942 25.6721 69.9584 25.7346 69.6202 25.73C69.2847 25.7353 68.9516 25.6728 68.6413 25.5463C68.3443 25.4246 68.0747 25.2458 67.8481 25.0203C67.6252 24.7905 67.4478 24.5216 67.3249 24.2272C67.2004 23.9019 67.1375 23.5566 67.1392 23.2087C67.1366 22.8635 67.1995 22.5208 67.3249 22.1986C67.4461 21.8909 67.6235 21.608 67.8481 21.3637C68.0747 21.1382 68.3443 20.9595 68.6413 20.8378C68.9528 20.7153 69.2851 20.6529 69.6202 20.6541C69.9581 20.6537 70.293 20.716 70.6076 20.8378C70.9009 20.9615 71.1674 21.1401 71.3924 21.3637C71.623 21.6034 71.8011 21.8876 71.9156 22.1986C72.0448 22.5197 72.1079 22.8631 72.1012 23.2087C72.1159 23.5492 72.0643 23.8893 71.9493 24.2105L71.9156 24.2272Z" fill="#FC8E44"/>
<path d="M83.5358 24.845L81.7215 19.2849H80.0253L78.1519 24.8033L76.3628 19.2849H74.4641L77.0633 27.1325H79.0295L80.827 21.8145L82.5823 27.1325H84.5316L87.1392 19.2849H85.3839L83.5358 24.845Z" fill="#FC8E44"/>
<path d="M93.6203 24.0436L89.6793 19.2849H88.1603V27.1325H89.9747V22.3739L93.9156 27.1325H95.4346V19.2849H93.6203V24.0436Z" fill="#FC8E44"/>
<path d="M55.173 36.6414C54.9282 36.935 54.6234 37.174 54.2785 37.3427C53.9293 37.5004 53.5484 37.5775 53.1646 37.5681C52.8154 37.5732 52.4685 37.5108 52.1435 37.3844C51.831 37.2675 51.5444 37.0917 51.2996 36.8668C51.0656 36.6282 50.8845 36.3438 50.7679 36.0319C50.666 35.7194 50.6203 35.3917 50.6329 35.0635C50.6312 34.7156 50.6941 34.3704 50.8186 34.045C50.9318 33.7315 51.1133 33.4465 51.3502 33.2102C51.5923 32.9798 51.8795 32.8008 52.1941 32.6842C52.5071 32.584 52.8361 32.5415 53.1646 32.559C53.5433 32.5547 53.9182 32.6346 54.2616 32.7927C54.6044 32.9611 54.9088 33.1969 55.1561 33.4857L56.346 32.4171C55.9748 31.9586 55.4931 31.5998 54.9452 31.3735C54.3511 31.1326 53.7138 31.0133 53.0717 31.0229C52.4953 31.0198 51.9232 31.1217 51.384 31.3234C50.8752 31.5059 50.4098 31.7901 50.0169 32.1583C49.6299 32.5227 49.32 32.9598 49.1055 33.4439C48.6776 34.488 48.6776 35.6558 49.1055 36.6998C49.3169 37.1836 49.6239 37.6207 50.0085 37.9855C50.4039 38.3504 50.8686 38.6341 51.3755 38.8203C51.9162 39.016 52.4877 39.1149 53.0633 39.1125C53.709 39.1234 54.3499 39.0012 54.9452 38.7535C55.4913 38.5242 55.9723 38.1659 56.346 37.71L55.173 36.6414Z" fill="#FC8E44"/>
<path d="M59.73 31.1397L56.211 38.9873H58.0844L58.7933 37.3176H62.4473L63.1477 38.9873H65.0802L61.519 31.1397H59.73ZM59.3756 35.8984L60.6329 32.9096L61.8903 35.8984H59.3756Z" fill="#FC8E44"/>
<path d="M71.1983 36.4577C71.6828 36.2622 72.0972 35.9279 72.3882 35.4976C72.6758 35.0428 72.8225 34.5146 72.8102 33.9782C72.8284 33.5851 72.755 33.1931 72.5955 32.8326C72.436 32.4722 72.1947 32.1528 71.8903 31.8995C71.1621 31.3614 70.2664 31.0926 69.3587 31.1398H65.9832V38.9873H67.8228V36.7917H69.5106L71.0549 38.9956H73.0211L71.2574 36.4911L71.1983 36.4577ZM70.5317 32.9764C70.6765 33.0994 70.7906 33.2538 70.8653 33.4275C70.9399 33.6013 70.973 33.7897 70.9621 33.9782C70.9724 34.1679 70.9391 34.3574 70.8645 34.5324C70.79 34.7074 70.6761 34.8633 70.5317 34.9884C70.162 35.2509 69.7114 35.3779 69.2574 35.3474H67.7722V32.6174H69.2574C69.7118 32.5833 70.1636 32.7106 70.5317 32.9764Z" fill="#FC8E44"/>
<path d="M76.0928 35.7147H79.7721V34.2871H76.0928V32.6007H80.2616V31.1397H74.27V38.9873H80.4135V37.5263H76.0928V35.7147Z" fill="#FC8E44"/>
<path d="M29.4177 26.473C29.3444 26.3042 29.3071 26.1223 29.308 25.9387L28.9874 27.3996C32.2869 26.9572 33.3165 28.3347 33.3165 28.3347C34.2701 27.4998 34.1013 24.7949 34.1013 24.7949C33.742 25.6974 33.0561 26.4354 32.1772 26.8653C32.0177 26.929 31.8457 26.9561 31.6741 26.9447C31.5025 26.9332 31.3357 26.8834 31.1863 26.7991C31.0369 26.7147 30.9087 26.598 30.8114 26.4577C30.7141 26.3173 30.6502 26.157 30.6245 25.9887C30.6225 25.9582 30.6225 25.9275 30.6245 25.8969C30.5262 26.194 30.3262 26.4479 30.0591 26.6149C30.0098 26.6537 29.9523 26.6812 29.8909 26.6952C29.8294 26.7092 29.7656 26.7094 29.7041 26.6957C29.6426 26.6821 29.5849 26.6551 29.5354 26.6165C29.4858 26.5779 29.4456 26.5289 29.4177 26.473Z" fill="#FC8E44"/>
<path d="M25.9916 7.97278C25.3405 7.97262 24.6898 8.00606 24.0422 8.07296L25.0717 9.65917C25.3755 9.65917 25.6793 9.65917 25.9916 9.65917C30.469 9.66987 34.7726 11.3745 38.0203 14.4236C41.2681 17.4727 43.2139 21.6353 43.4588 26.0581C43.7038 30.4809 42.2293 34.8289 39.3378 38.2108C36.4462 41.5927 32.3566 43.7523 27.9072 44.2468H28.1435C28.0655 44.2737 27.9827 44.2843 27.9003 44.278C27.818 44.2717 27.7378 44.2486 27.6649 44.2102C27.592 44.1718 27.5279 44.1188 27.4767 44.0548C27.4254 43.9907 27.3881 43.9168 27.3671 43.8377C26.4821 42.0585 26.1447 40.0613 26.3966 38.094C26.5328 37.1587 26.8989 36.2707 27.4627 35.5079C28.0265 34.7451 28.7708 34.1307 29.6304 33.7187C30.4901 33.3067 31.4387 33.1095 32.3933 33.1446C33.3478 33.1797 34.2791 33.4458 35.1055 33.9198C35.43 34.1119 35.7402 34.3268 36.0338 34.5626C36.2145 34.0416 36.2083 33.4749 36.0162 32.9579C35.8241 32.4409 35.4578 32.0052 34.9789 31.7241C34.6141 31.5678 34.2934 31.3255 34.0448 31.0185C33.7962 30.7115 33.6273 30.349 33.5528 29.9626C33.4324 29.5507 33.1936 29.1823 32.8655 28.9022C32.5374 28.6221 32.1341 28.4423 31.7047 28.3848C30.5102 28.1159 29.2974 27.9346 28.076 27.8421C26.7004 27.7336 26.2194 27.0907 26.8777 25.8886C27.3049 25.1205 27.8421 24.4175 28.4726 23.8015C29.3097 22.9963 29.8272 21.9208 29.9309 20.7704C30.0347 19.6199 29.7178 18.4708 29.038 17.5318L28.1941 16.3129L27.7469 15.6784L25.038 11.8882L24.962 11.8047C24.5063 11.1619 24.0507 10.5107 23.5865 9.87623C23.2405 9.36697 22.8777 8.85771 22.5148 8.34846C20.6526 5.71591 18.7989 3.10284 16.9536 0.509256C16.8777 0.350635 16.7173 0.200363 16.5654 0C16.3038 0.283848 16.0844 0.484211 15.8988 0.726316C15.2205 1.60108 14.7857 2.63633 14.6377 3.72901C14.4896 4.82169 14.6335 5.93368 15.0549 6.95427C15.4704 8.14689 16.0619 9.27218 16.8101 10.2936C17.1393 10.7528 17.4937 11.2036 17.8734 11.6377C18.0675 11.8715 18.2785 12.1136 18.4979 12.3557L19.2574 13.1906L19.1899 13.2657L16.9198 12.1554L15.1899 11.2704L6.25318 6.90417C6.15182 7.60656 6.10106 8.31518 6.10129 9.02468C6.20049 9.96998 6.49335 10.8854 6.96198 11.715C7.43062 12.5446 8.06521 13.2711 8.82702 13.8501C9.44489 14.3945 10.1083 14.886 10.8101 15.3194C11.2912 15.6116 11.7975 15.8871 12.3123 16.1543C12.827 16.4214 13.2996 16.6385 13.8059 16.8555L14.9452 17.3481C14.9452 17.3481 14.9452 17.4149 14.9452 17.4483L11.7469 16.939L9.91563 16.6385L1.05487 15.2025C1.03763 15.4945 1.03763 15.7872 1.05487 16.0791C1.15231 17.0941 1.53854 18.0609 2.1688 18.8675C3.26739 20.2188 4.73028 21.2348 6.38821 21.7978C6.71732 21.923 7.05487 22.0316 7.39242 22.1401C7.89875 22.3071 8.4304 22.4657 8.9958 22.641C9.08019 22.641 9.16458 22.6911 9.24896 22.7162H8.97892L7.29116 22.6327L1.9352e-05 22.282C-0.0113183 22.4098 -0.0113183 22.5383 1.9351e-05 22.6661C0.011434 22.7952 0.0311646 22.9235 0.0590911 23.0501C0.262329 23.8939 0.649287 24.6837 1.19295 25.3643C1.73661 26.0449 2.42388 26.5999 3.20677 26.9906C4.33856 27.6028 5.56001 28.0366 6.82702 28.2762C7.29116 28.3848 7.76373 28.4766 8.23631 28.5601L6.86078 28.727L1.94939 29.3198C2.12466 30.2415 2.53987 31.102 3.15403 31.8165C3.76819 32.531 4.56007 33.0746 5.4515 33.3938C6.3175 33.7515 7.22891 33.9903 8.16036 34.1035C8.7865 34.1928 9.41804 34.2402 10.0507 34.2454C10.4135 34.2454 10.768 34.2454 11.1393 34.2454C11.5106 34.2454 11.789 34.2454 12.1097 34.2454C12.1097 34.2454 12.1097 34.2955 12.1097 34.3205L10.3123 34.8047C9.76373 34.955 9.20677 35.0969 8.62449 35.2555C7.2574 35.6062 5.89031 35.9819 4.51479 36.3492C4.78468 37.1377 5.25722 37.8432 5.886 38.3965C6.51478 38.9497 7.2782 39.3317 8.10129 39.5049C9.27425 39.8196 10.4961 39.9159 11.7047 39.7887C12.0253 39.7887 12.3545 39.722 12.6667 39.6719C12.9789 39.6218 13.384 39.5466 13.7469 39.4715C14.5907 39.3045 15.4853 39.1125 16.4051 38.9289L14.6582 40.298L13.308 41.3416C11.9747 42.3935 10.6498 43.4203 9.31647 44.4555C9.38399 44.539 9.40086 44.5724 9.43462 44.5891L9.62871 44.706C10.5835 45.2581 11.6608 45.5697 12.7659 45.6133C13.871 45.657 14.97 45.4314 15.9663 44.9564C16.1006 44.8847 16.2529 44.8528 16.4051 44.8646C16.4051 44.8646 16.9452 44.5307 17.5612 44.1299C20.1891 45.3848 23.0737 46.0246 25.9916 46C28.5494 46.053 31.0922 45.6004 33.4709 44.6687C35.8496 43.737 38.0164 42.345 39.8443 40.5741C41.6722 38.8033 43.1245 36.6893 44.1159 34.3561C45.1073 32.0229 45.618 29.5174 45.618 26.9864C45.618 24.4554 45.1073 21.9499 44.1159 19.6167C43.1245 17.2834 41.6722 15.1695 39.8443 13.3986C38.0164 11.6278 35.8496 10.2358 33.4709 9.30406C31.0922 8.37235 28.5494 7.91975 25.9916 7.97278ZM25.0633 44.2969C23.0284 44.2052 21.0271 43.7498 19.1561 42.9528C19.2196 42.8985 19.2763 42.8368 19.3249 42.7691L21.9409 38.9706C22.9096 39.4823 23.7149 40.251 24.2664 41.1904C24.818 42.1298 25.0939 43.2026 25.0633 44.2886V44.2969Z" fill="#FC8E44"/>
</g>
<defs>
<clipPath id="clip0_2103_848">
<rect width="100" height="46" fill="white"/>
</clipPath>
</defs>
</svg>
