<svg width="100" height="66" viewBox="0 0 100 66" fill="none" xmlns="http://www.w3.org/2000/svg">
<g clip-path="url(#clip0_2103_849)">
<path d="M99.0694 10.7283C96.9688 10.7629 94.8646 10.7803 92.7674 10.7283C91.9479 10.7041 91.5764 11.0156 91.3021 11.7423C90.2164 14.5986 89.0995 17.4422 87.9514 20.2731C87.743 20.7922 87.684 21.4151 87.0833 21.8408C86.8785 21.339 86.6805 20.8891 86.5035 20.4288C85.3993 17.5806 84.2743 14.7394 83.2222 11.8704C82.9167 11.0467 82.5278 10.6903 81.6007 10.7249C79.4167 10.801 77.2257 10.7941 75.0451 10.7249C74.0764 10.6937 73.441 10.7837 73.8993 12.1092C70.1944 10.1642 66.4896 9.94621 62.7083 10.9325C58.8264 11.9431 56.066 14.3102 54.5174 18.0928C54.4028 15.9402 54.368 13.8603 54.4167 11.7769C54.4375 10.9394 54.1389 10.7007 53.3264 10.7145C51.059 10.7595 48.7882 10.7664 46.5174 10.7145C45.6285 10.6903 45.3542 10.9844 45.3819 11.8565C45.4375 13.798 45.3993 15.743 45.3993 17.9405C41.2014 10.3027 36.0555 8.46501 29.4444 12.1126C29.5729 10.673 28.6701 10.6764 27.6354 10.7041C25.7049 10.7595 23.7708 10.7526 21.8368 10.7041C21.066 10.7041 20.7951 10.9152 20.8264 11.6939C20.8993 12.7817 20.8993 13.8731 20.8264 14.9608C20.7465 15.9679 21.1389 16.4836 22.0069 17.0096C25.8264 19.3179 28.2222 22.5849 28.5139 27.1461C28.6424 29.188 28.3437 30.6069 25.7882 30.4546C25.6701 30.4546 25.559 30.5204 25.6007 30.7176C25.8576 30.9945 26.3785 30.9426 26.5972 31.3475C24.5139 32.6557 22.7222 32.0396 20.8542 29.2537C20.8542 32.7422 20.8542 36.0368 20.8542 39.3349C20.8542 40.0859 21.4549 39.8921 21.875 39.8956C24.1424 39.8956 26.4132 39.8575 28.6805 39.9232C29.6111 39.9475 29.7986 39.5772 29.7812 38.757C29.7326 36.5352 29.7812 34.3168 29.7812 32.095C29.7812 31.4582 29.8507 31.1537 30.6319 31.5448C36.2361 34.348 42.5625 31.9358 44.868 26.1494C44.9653 25.9072 44.9375 25.5542 45.4028 25.4919C45.4028 26.1841 45.4201 26.8485 45.4028 27.513C45.3854 28.1775 45.4792 28.4785 46.2465 28.1428C48.565 27.1544 51.0037 26.4737 53.5 26.1183C54.2465 26.0041 54.5417 25.703 54.5417 24.8586C54.8021 25.8795 55.4653 25.8449 56.2396 25.7895C62.3825 25.3382 68.5432 26.3872 74.1875 28.8454C75.8264 29.5375 75.8264 29.5375 76.75 28.0702C76.9236 27.7864 77.0625 27.4784 77.2396 27.1946C77.6493 26.544 77.4687 26.1564 76.7743 25.8414C75.0625 25.0489 73.3576 24.2322 71.6875 23.3566C70.9549 22.9725 70.5868 23.0105 70.125 23.7788C69.1875 25.3708 67.7604 25.9729 66.2083 25.6407C64.4722 25.2739 63.4305 23.9103 63.3055 21.872C63.1805 19.8336 64.1076 18.1343 65.6805 17.5702C67.3715 16.9646 69.0521 17.5356 70.1076 19.2695C70.625 20.1208 71.066 20.062 71.8021 19.6675C73.059 18.9926 74.368 18.4147 75.6215 17.7571C76.1493 17.4803 76.4028 17.546 76.6389 18.1032C78.5035 22.7025 80.4097 27.2604 82.2917 31.8389C82.4375 32.185 82.6562 32.5657 82.2569 32.8772C81.6736 33.3063 82.0521 33.5278 82.3924 33.8046C83.9887 35.0333 85.4515 36.4252 86.7569 37.9575C87.2049 38.5078 87.5451 38.3971 87.9861 37.9818C89.2958 36.7286 90.32 35.2097 90.9896 33.5278C93.9653 26.2567 96.875 18.9926 99.8437 11.7666C100.226 10.8114 99.8819 10.7283 99.0694 10.7283ZM28.125 32.6176C27.3889 33.0883 27.3819 33.7077 27.5174 34.4691C27.9097 36.7324 27.6007 38.1756 26.4062 39.4076C26.5972 38.0233 26.7778 36.8709 26.9236 35.6977C27.1944 33.5347 27.1875 33.5347 24.7986 33.2267C26.4132 32.8356 27.4271 31.9151 28.5417 31.1156C28.6168 31.2406 28.6657 31.3795 28.6853 31.5239C28.705 31.6683 28.6951 31.8151 28.6561 31.9556C28.6171 32.096 28.55 32.2271 28.4587 32.3409C28.3674 32.4547 28.2539 32.5488 28.125 32.6176ZM36.4201 22.9275C35.8819 25.0766 34.0451 26.1841 32.066 25.5577C30.5035 25.0628 29.6354 23.6716 29.6354 21.5882C29.6354 18.6811 31.3715 16.9542 33.8021 17.4353C35.9062 17.8886 37.0694 20.3527 36.4236 22.9413L36.4201 22.9275Z" fill="#FC7E22"/>
<path d="M88.8403 42.7991C81.25 31.1468 65.3333 24.8863 51.4896 28.1913C43.9826 29.9805 37.7431 33.7285 33.4722 40.3039C31.8195 42.8614 30.8125 45.4951 33.1632 48.4505C31.4688 48.1425 31.8125 48.935 32.0868 49.7898C33.3889 53.8528 37.7431 56.5902 42.0174 56.0988C44.7951 55.7804 47.1111 54.4411 49.309 52.8768C52.8697 50.2817 56.6041 47.9322 60.4861 45.8446C64.4271 43.7681 68.5347 42.6607 72.9861 43.5224C79.6111 44.8064 84.3056 48.7862 87.7153 54.3892C88.4583 55.6143 89.5729 56.2857 90.5868 57.137C90.8889 57.3897 91.0833 57.3066 91.2813 56.9674C92.1077 55.4482 92.7431 53.967 92.4306 52.0947C91.8982 48.7803 90.6752 45.6138 88.8403 42.7991ZM45.1389 46.4537C44.6627 47.0813 44.1466 47.6777 43.5938 48.2394C43.3403 48.0837 43.1597 47.9868 42.9931 47.8657C41.6771 46.907 40.375 45.9242 39.0347 44.9967C38.4722 44.6091 38.434 44.263 38.8993 43.8166C39.5938 43.1625 39.9063 42.1797 41.066 41.9478C41.5139 41.8613 41.5556 40.8507 42.059 40.4424C42.3299 40.2209 42.625 39.5737 42.9896 40.2382C43.2743 40.7538 44.3785 41.0238 43.684 41.9132C42.5938 43.2975 42.6042 43.5986 43.8889 44.8029C44.1415 45.0115 44.374 45.2432 44.5833 45.4951C44.7917 45.8065 45.4861 45.9657 45.1389 46.4537ZM52.2882 41.401C51.3264 42.7853 48.3507 43.7993 46.7326 43.3079C46.306 43.1936 45.9107 42.9851 45.576 42.6977C45.2414 42.4104 44.9759 42.0515 44.7995 41.6479C44.623 41.2443 44.54 40.8062 44.5567 40.3662C44.5734 39.9263 44.6893 39.4957 44.8958 39.1065C45.7813 37.3208 48.1771 36.0576 50.1424 36.3379C50.8153 36.4164 51.4376 36.7333 51.8958 37.2308C52.9132 38.3486 52.7847 38.8573 51.3889 39.3591C50.6945 39.6152 50 39.9129 49.3056 40.2243C48.934 40.3939 48.5903 40.6292 47.9826 40.9788C49.1146 41.4218 49.8333 41.0861 50.382 40.5081C51.1701 39.681 51.7708 40.4008 52.3924 40.6742C52.7951 40.8646 52.4479 41.183 52.2951 41.401H52.2882ZM60.1667 38.1998C58.8854 38.089 57.5972 37.9887 56.2257 38.404C57.0208 39.2207 57.875 39.0961 58.6563 38.8054C59.7535 38.4144 60.0799 39.3349 60.316 39.8817C60.5521 40.4285 59.7361 40.5531 59.2917 40.6638C57.6667 41.0791 56.0417 41.1518 54.5486 40.2243C52.5243 38.9715 52.4306 36.4556 54.4063 35.1336C56.1424 33.9707 58.0208 33.9015 59.8958 34.8636C60.2721 35.0546 60.6011 35.3266 60.8587 35.66C61.1164 35.9935 61.2963 36.3799 61.3854 36.7913C61.6632 37.9333 61.3299 38.3002 60.1736 38.1998H60.1667ZM67.6042 35.5592C67.5423 35.5169 67.4722 35.4882 67.3983 35.4748C67.3245 35.4615 67.2487 35.4639 67.1759 35.4819C67.1031 35.4999 67.0349 35.533 66.9758 35.5792C66.9168 35.6253 66.8682 35.6834 66.8333 35.7496C66.6597 36.1545 67.1042 36.1683 67.3229 36.3102C67.7083 36.5663 68.4896 36.4452 68.1215 37.3484C67.8056 38.1375 67.4618 38.5666 66.5903 38.0648C66.1076 37.788 65.934 38.1063 65.7951 38.5043C65.5 39.373 65.1354 40.2347 64.8958 41.1034C64.691 41.8509 64.2014 41.7955 63.7639 41.5256C63.2431 41.1795 62.0278 41.7817 62.2188 40.4424C62.3333 39.7018 62.4896 38.9681 62.6285 38.2309C62.7431 37.6322 63.0278 37.0577 62.0625 36.767C61.4896 36.5975 62.0139 35.9676 61.9861 35.5489C61.9583 35.1301 62.1597 34.9155 62.6042 35.0263C62.6815 35.0553 62.764 35.0679 62.8465 35.0635C62.929 35.0591 63.0096 35.0377 63.0834 35.0006C63.1571 34.9635 63.2223 34.9116 63.2749 34.8481C63.3275 34.7846 63.3663 34.7109 63.3889 34.6318C64.0833 33.1436 65.3472 32.9429 66.7708 33.2025C67.9558 33.3624 69.0602 33.8904 69.9271 34.7114C69.25 35.3412 68.75 36.2341 67.6111 35.5592H67.6042Z" fill="#FC7E22"/>
<path d="M17.3958 21.8304C16.8006 20.9606 16.03 20.224 15.1333 19.6675C14.2365 19.1109 13.2333 18.7467 12.1875 18.5981C9.98157 18.2073 7.7082 18.5159 5.68751 19.4806C5.31946 19.6536 4.85418 19.9928 4.55557 19.5671C4.29515 19.1933 4.63543 18.7677 4.90279 18.4458C5.60049 17.6086 6.44528 16.905 7.39585 16.3694C10.3229 14.7809 13.4271 14.4244 16.6806 14.9851C19.0243 15.3969 18.9688 15.3519 19.9688 13.1786C20.4028 12.2303 20.0625 11.9604 19.2743 11.6627C16.8618 10.7964 14.3143 10.3629 11.75 10.3823C8.93751 10.3546 6.19446 10.7283 3.7639 12.2165C1.06251 13.8811 -0.0659586 16.6116 0.694458 19.5533C1.42015 22.3461 3.59376 23.4397 6.12501 23.9796C8.00696 24.3845 9.94446 24.561 11.8438 24.8794C12.2778 24.952 12.8264 25.0766 12.809 25.6857C12.7917 26.2948 12.25 26.3779 11.8125 26.4748C11.4833 26.5404 11.1483 26.5728 10.8125 26.5717C8.32369 26.7116 5.84021 26.2161 3.59724 25.132C2.77779 24.7236 2.46529 24.8794 2.17015 25.703C1.71624 27.0053 1.17807 28.2769 0.559041 29.5098C0.0659859 30.4788 0.41668 30.8007 1.28126 31.1468C5.13964 32.6382 9.32516 33.086 13.4132 32.4446C15.9132 32.0673 18.2083 31.1745 19.8715 29.1292C20.2431 28.6689 20.566 28.219 20.2743 27.5372C19.4757 25.5507 18.6285 23.592 17.3958 21.8304Z" fill="#FC7E22"/>
<path d="M29.5972 46.1699C26.7535 48.0837 26.3542 49.1358 27.1979 52.1847C27.2994 52.4824 27.3037 52.8045 27.2101 53.1048C27.1166 53.4051 26.9299 53.6682 26.6771 53.8562C25.5082 54.9446 24.4983 56.1911 23.6771 57.5592C22.2842 59.6222 21.5573 62.0602 21.5937 64.5465C21.6146 65.5432 22.3785 65.6574 22.9826 65.9308C23.6597 66.2353 23.6771 65.4947 23.8681 65.1521C25.3472 62.1966 26.8044 59.2285 28.2396 56.2476C28.6806 55.334 29.0139 55.0433 30.1076 55.6835C32.3542 56.9917 34.7639 58.0195 37.1076 59.165L37.3889 58.8812C33.2569 55.5728 30.1528 51.6586 29.5972 46.1699Z" fill="#FC7E22"/>
<path d="M49.4722 9.13291C53.1806 9.44438 55.8646 6.80729 55.2083 3.48843C54.8021 1.4189 52.9097 0.121118 50.1424 -8.05361e-06C46.941 -0.131517 44.5868 1.74767 44.559 4.47474C44.5208 7.09799 46.3993 8.87336 49.4722 9.13291Z" fill="#FC7E22"/>
<path d="M57 36.0749C56.8726 36.0723 56.746 36.096 56.6282 36.1443C56.5104 36.1927 56.4038 36.2648 56.3152 36.356C56.2266 36.4473 56.1578 36.5558 56.1131 36.6747C56.0684 36.7937 56.0488 36.9205 56.0555 37.0473L58.4375 36.812C58.1736 35.9918 57.5764 36.0333 57 36.0749Z" fill="#FC7E22"/>
<path d="M49.2604 38.5147C49.0486 38.1306 48.4167 38.2586 47.9965 38.4766C47.7342 38.5755 47.5214 38.7731 47.4039 39.0268C47.2863 39.2805 47.2735 39.5702 47.3681 39.8332C47.772 39.666 48.1631 39.4693 48.5382 39.2449C48.8229 39.0442 49.5729 39.0753 49.2604 38.5147Z" fill="#FC7E22"/>
</g>
<defs>
<clipPath id="clip0_2103_849">
<rect width="100" height="66" fill="white"/>
</clipPath>
</defs>
</svg>
