<svg id="Layer_1" data-name="Layer 1" xmlns="http://www.w3.org/2000/svg" viewBox="0 0 95.89 95.89"><defs><style>.cls-1{fill:#0059aa;}</style></defs><path class="cls-1" d="M85.39,0H10.48A10.49,10.49,0,0,0,0,10.51V85.39a10.49,10.49,0,0,0,10.48,10.5H85.39a10.51,10.51,0,0,0,10.5-10.5V10.51A10.51,10.51,0,0,0,85.39,0Zm-24,19.23a4.61,4.61,0,1,1-4.59,4.59A4.6,4.6,0,0,1,61.41,19.23ZM29.18,32.63a16.19,16.19,0,0,1,3.76-5.05,17.07,17.07,0,0,1,5.76-3.3,22.31,22.31,0,0,1,7.37-1.14,21.69,21.69,0,0,1,4.74.49,24.27,24.27,0,0,1,4.13,1.3l.22.12a6.12,6.12,0,0,0,6,5h.12a2.37,2.37,0,0,1,.46.59A14.66,14.66,0,0,1,64.19,39a15.54,15.54,0,0,1-1.33,6.47A15.08,15.08,0,0,1,59.66,50a.74.74,0,0,0-.25,0,14.9,14.9,0,0,0-4.78.25,19.21,19.21,0,0,0-5,1.88,2.94,2.94,0,0,0-.71.4A9.67,9.67,0,0,0,50.38,50a21.93,21.93,0,0,0,1.2-4.84A40.69,40.69,0,0,0,52,39a41.4,41.4,0,0,0-.43-6.1,21.64,21.64,0,0,0-1.2-4.81A9.75,9.75,0,0,0,48.47,25a3.33,3.33,0,0,0-2.4-1.14A3.24,3.24,0,0,0,43.69,25a8.52,8.52,0,0,0-1.91,3.11,24.56,24.56,0,0,0-1.26,4.81,41.24,41.24,0,0,0-.46,6.1,40.51,40.51,0,0,0,.46,6.07A24.9,24.9,0,0,0,41.78,50a8.79,8.79,0,0,0,1.91,3.11,3.24,3.24,0,0,0,2.38,1.14l-1,.59a.75.75,0,0,1-.21.12A20,20,0,0,1,39.75,54a17.69,17.69,0,0,1-5.24-2.53l0-.06-.62-.37a15.94,15.94,0,0,1-4.4-5.27A14,14,0,0,1,27.83,39,15.27,15.27,0,0,1,29.18,32.63ZM68,66.77a12.65,12.65,0,0,1-3.15,4.81,20.5,20.5,0,0,1-5.6,3.88,32.2,32.2,0,0,1-7.89,2.68c-6.5,1.42-11.9,1.24-15.72-1.17a7.24,7.24,0,0,1-3.33-3.91,23.81,23.81,0,0,0,4.5,2.74,19.53,19.53,0,0,0,10.85.34,17.77,17.77,0,0,0,7.15-3,8.75,8.75,0,0,0,3-3.76,3.11,3.11,0,0,0-.53-3.08c-.71-.8-1.85-1.08-3.42-.71a12,12,0,0,0-2.77,1.05l-3.21,1.7c-1.14.61-2.37,1.23-3.72,1.81a25.9,25.9,0,0,1-4.47,1.42q-5.77,1.24-8.78-.92L30,70a6.7,6.7,0,0,1-1.26-1.67,6.85,6.85,0,0,1-.71-2.06,10.14,10.14,0,0,1,.49-6,14,14,0,0,1,3.12-4.5l.86.16a6.26,6.26,0,0,0-1.2,2.25,4.11,4.11,0,0,0,0,2.8,3.17,3.17,0,0,0,1.88,1.79,5.84,5.84,0,0,0,3.54.12,14.09,14.09,0,0,0,4.1-1.66c1.36-.77,2.74-1.67,4.19-2.62s3-1.79,4.53-2.62a18.76,18.76,0,0,1,5-1.91,15.71,15.71,0,0,1,4.75-.25,11.89,11.89,0,0,1,4.1,1.24,9.74,9.74,0,0,1,3.08,2.61,9.35,9.35,0,0,1,1.76,3.76A9.73,9.73,0,0,1,68,66.77Z"/></svg>