<svg id="Layer_1" data-name="Layer 1" xmlns="http://www.w3.org/2000/svg" viewBox="0 0 288 95.89"><defs><style>.cls-1{fill:#fff;}</style></defs><path class="cls-1" d="M85.39,0H10.48A10.49,10.49,0,0,0,0,10.51V85.39a10.49,10.49,0,0,0,10.48,10.5H85.39a10.51,10.51,0,0,0,10.5-10.5V10.51A10.51,10.51,0,0,0,85.39,0Zm-24,19.23a4.61,4.61,0,1,1-4.59,4.59A4.6,4.6,0,0,1,61.41,19.23ZM29.18,32.63a16.19,16.19,0,0,1,3.76-5.05,17.07,17.07,0,0,1,5.76-3.3,22.31,22.31,0,0,1,7.37-1.14,21.69,21.69,0,0,1,4.74.49,24.27,24.27,0,0,1,4.13,1.3l.22.12a6.12,6.12,0,0,0,6,5h.12a2.37,2.37,0,0,1,.46.59A14.66,14.66,0,0,1,64.19,39a15.54,15.54,0,0,1-1.33,6.47A15.08,15.08,0,0,1,59.66,50a.74.74,0,0,0-.25,0,14.9,14.9,0,0,0-4.78.25,19.21,19.21,0,0,0-5,1.88,2.94,2.94,0,0,0-.71.4A9.67,9.67,0,0,0,50.38,50a21.93,21.93,0,0,0,1.2-4.84A40.69,40.69,0,0,0,52,39a41.4,41.4,0,0,0-.43-6.1,21.64,21.64,0,0,0-1.2-4.81A9.75,9.75,0,0,0,48.47,25a3.33,3.33,0,0,0-2.4-1.14A3.24,3.24,0,0,0,43.69,25a8.52,8.52,0,0,0-1.91,3.11,24.56,24.56,0,0,0-1.26,4.81,41.24,41.24,0,0,0-.46,6.1,40.51,40.51,0,0,0,.46,6.07A24.9,24.9,0,0,0,41.78,50a8.79,8.79,0,0,0,1.91,3.11,3.24,3.24,0,0,0,2.38,1.14l-1,.59a.75.75,0,0,1-.21.12A20,20,0,0,1,39.75,54a17.69,17.69,0,0,1-5.24-2.53l0-.06-.62-.37a15.94,15.94,0,0,1-4.4-5.27A14,14,0,0,1,27.83,39,15.27,15.27,0,0,1,29.18,32.63ZM68,66.77a12.65,12.65,0,0,1-3.15,4.81,20.5,20.5,0,0,1-5.6,3.88,32.2,32.2,0,0,1-7.89,2.68c-6.5,1.42-11.9,1.24-15.72-1.17a7.24,7.24,0,0,1-3.33-3.91,23.81,23.81,0,0,0,4.5,2.74,19.53,19.53,0,0,0,10.85.34,17.77,17.77,0,0,0,7.15-3,8.75,8.75,0,0,0,3-3.76,3.11,3.11,0,0,0-.53-3.08c-.71-.8-1.85-1.08-3.42-.71a12,12,0,0,0-2.77,1.05l-3.21,1.7c-1.14.61-2.37,1.23-3.72,1.81a25.9,25.9,0,0,1-4.47,1.42q-5.77,1.24-8.78-.92L30,70a6.7,6.7,0,0,1-1.26-1.67,6.85,6.85,0,0,1-.71-2.06,10.14,10.14,0,0,1,.49-6,14,14,0,0,1,3.12-4.5l.86.16a6.26,6.26,0,0,0-1.2,2.25,4.11,4.11,0,0,0,0,2.8,3.17,3.17,0,0,0,1.88,1.79,5.84,5.84,0,0,0,3.54.12,14.09,14.09,0,0,0,4.1-1.66c1.36-.77,2.74-1.67,4.19-2.62s3-1.79,4.53-2.62a18.76,18.76,0,0,1,5-1.91,15.71,15.71,0,0,1,4.75-.25,11.89,11.89,0,0,1,4.1,1.24,9.74,9.74,0,0,1,3.08,2.61,9.35,9.35,0,0,1,1.76,3.76A9.73,9.73,0,0,1,68,66.77Z"/><path class="cls-1" d="M120.49,39.42a9.92,9.92,0,0,1-4.27-3.33A8.75,8.75,0,0,1,114.6,31h6.93a4.45,4.45,0,0,0,1.41,3.14,5,5,0,0,0,3.49,1.16A5.34,5.34,0,0,0,130,34.17a3.53,3.53,0,0,0,1.29-2.84,3.31,3.31,0,0,0-.87-2.36,6.21,6.21,0,0,0-2.2-1.45,34.78,34.78,0,0,0-3.63-1.18,39.63,39.63,0,0,1-5.1-1.83,8.86,8.86,0,0,1-3.38-2.73,7.74,7.74,0,0,1-1.41-4.87,8.76,8.76,0,0,1,1.43-5,9.09,9.09,0,0,1,4-3.26,14.49,14.49,0,0,1,5.91-1.13A12.87,12.87,0,0,1,134.17,10a9,9,0,0,1,3.45,6.77H130.5A3.69,3.69,0,0,0,129.09,14a5.33,5.33,0,0,0-3.49-1.08,4.5,4.5,0,0,0-3,1,3.53,3.53,0,0,0-1.13,2.82,2.89,2.89,0,0,0,.86,2.15,6.28,6.28,0,0,0,2.12,1.38A36.19,36.19,0,0,0,128,21.44a37.82,37.82,0,0,1,5.14,1.85,9.14,9.14,0,0,1,3.41,2.77A7.67,7.67,0,0,1,138,30.91a9.16,9.16,0,0,1-1.34,4.81,9.55,9.55,0,0,1-3.93,3.54,13.54,13.54,0,0,1-6.15,1.31A15.36,15.36,0,0,1,120.49,39.42Z"/><path class="cls-1" d="M164.89,29.39H146.17a6.32,6.32,0,0,0,1.94,4.34,6,6,0,0,0,4.21,1.58,5.3,5.3,0,0,0,5.13-3.1h7a11.67,11.67,0,0,1-4.25,6.08,12.43,12.43,0,0,1-7.72,2.38A13.41,13.41,0,0,1,145.82,39a11.65,11.65,0,0,1-4.58-4.65,14.25,14.25,0,0,1-1.64-6.93,14.48,14.48,0,0,1,1.62-7,11.33,11.33,0,0,1,4.53-4.62,13.56,13.56,0,0,1,6.7-1.62A13.4,13.4,0,0,1,159,15.8a11.08,11.08,0,0,1,4.49,4.46,13.55,13.55,0,0,1,1.59,6.63A15.68,15.68,0,0,1,164.89,29.39ZM158.37,25a5.12,5.12,0,0,0-1.8-4,6.41,6.41,0,0,0-4.3-1.51,5.87,5.87,0,0,0-4,1.46,6.4,6.4,0,0,0-2,4Z"/><path class="cls-1" d="M178.15,34.29l6.47-19.65h6.89L182,40.25h-7.85l-9.43-25.61h6.93Z"/><path class="cls-1" d="M216.47,29.39H197.75a6.32,6.32,0,0,0,1.94,4.34,6,6,0,0,0,4.21,1.58,5.3,5.3,0,0,0,5.13-3.1h7a11.73,11.73,0,0,1-4.25,6.08A12.47,12.47,0,0,1,204,40.67,13.36,13.36,0,0,1,197.41,39a11.58,11.58,0,0,1-4.58-4.65,14.25,14.25,0,0,1-1.64-6.93,14.59,14.59,0,0,1,1.61-7,11.35,11.35,0,0,1,4.54-4.62,14.54,14.54,0,0,1,13.24,0,11.06,11.06,0,0,1,4.48,4.46,13.44,13.44,0,0,1,1.6,6.63A14.53,14.53,0,0,1,216.47,29.39ZM210,25a5.12,5.12,0,0,0-1.8-4,6.39,6.39,0,0,0-4.3-1.51,5.87,5.87,0,0,0-4,1.46,6.34,6.34,0,0,0-2,4Z"/><path class="cls-1" d="M240.64,17.16q2.82,2.89,2.82,8.07v15H237V26.11a6.6,6.6,0,0,0-1.52-4.69,5.4,5.4,0,0,0-4.16-1.65,5.51,5.51,0,0,0-4.23,1.65,6.57,6.57,0,0,0-1.55,4.69V40.25h-6.47V14.64h6.47v3.19a8.88,8.88,0,0,1,3.3-2.61,10.31,10.31,0,0,1,4.42-1A9.88,9.88,0,0,1,240.64,17.16Z"/><path class="cls-1" d="M254.84,20V32.35a2.44,2.44,0,0,0,.62,1.87,3.08,3.08,0,0,0,2.1.58h3v5.45H256.5q-8.19,0-8.18-8V20h-3V14.64h3V8.31h6.52v6.33h5.73V20Z"/><path class="cls-1" d="M282.52,15.55a8.72,8.72,0,0,1,3.54,3.74,13,13,0,0,1,1.27,5.94v15h-6.47V26.11a6.61,6.61,0,0,0-1.53-4.69,5.39,5.39,0,0,0-4.16-1.65,5.51,5.51,0,0,0-4.23,1.65,6.57,6.57,0,0,0-1.55,4.69V40.25h-6.47V6.05h6.47V17.83a8.38,8.38,0,0,1,3.33-2.61,11.06,11.06,0,0,1,4.62-1A10.39,10.39,0,0,1,282.52,15.55Z"/><path class="cls-1" d="M130.5,52.34a9.21,9.21,0,0,1,3.42,2.93V51.62h6.52V77.41A13.7,13.7,0,0,1,139,83.77a10.65,10.65,0,0,1-4.29,4.44,13.81,13.81,0,0,1-6.94,1.64,14.79,14.79,0,0,1-8.94-2.55,9.4,9.4,0,0,1-4-6.93h6.42a4.8,4.8,0,0,0,2.2,2.8,7.67,7.67,0,0,0,4.09,1,6.34,6.34,0,0,0,4.57-1.69,6.78,6.78,0,0,0,1.76-5.11v-4a9.83,9.83,0,0,1-3.44,3,10.32,10.32,0,0,1-5,1.2A10.94,10.94,0,0,1,119.55,76a11.64,11.64,0,0,1-4.24-4.69,15.11,15.11,0,0,1-1.54-7,14.8,14.8,0,0,1,1.54-6.88,11.41,11.41,0,0,1,4.21-4.63,11.17,11.17,0,0,1,5.94-1.61A10.7,10.7,0,0,1,130.5,52.34Zm2.5,8a6.57,6.57,0,0,0-2.5-2.59,6.67,6.67,0,0,0-3.37-.9,6.5,6.5,0,0,0-3.33.88,6.65,6.65,0,0,0-2.48,2.56,8.08,8.08,0,0,0-.94,4,8.35,8.35,0,0,0,.94,4,6.88,6.88,0,0,0,2.5,2.65,6.33,6.33,0,0,0,3.31.93,6.67,6.67,0,0,0,3.37-.9,6.57,6.57,0,0,0,2.5-2.59,9.35,9.35,0,0,0,0-8.09Z"/><path class="cls-1" d="M168.63,51.62V77.23h-6.52V74a8.44,8.44,0,0,1-3.26,2.61,9.94,9.94,0,0,1-4.36,1,10.82,10.82,0,0,1-5.32-1.27,9,9,0,0,1-3.63-3.74,12.5,12.5,0,0,1-1.31-5.9v-15h6.47v14.1a6.67,6.67,0,0,0,1.52,4.69,6.16,6.16,0,0,0,8.37,0,6.62,6.62,0,0,0,1.52-4.69V51.62Z"/><path class="cls-1" d="M182.43,52.41a9.06,9.06,0,0,1,4.6-1.16v6.8h-1.71a6.52,6.52,0,0,0-4.6,1.43c-1,1-1.55,2.62-1.55,5V77.23H172.7V51.62h6.47v4A9.05,9.05,0,0,1,182.43,52.41Z"/><path class="cls-1" d="M213.23,51.62V77.23h-6.51V74a8.51,8.51,0,0,1-3.26,2.61,10,10,0,0,1-4.37,1,10.78,10.78,0,0,1-5.31-1.27,8.92,8.92,0,0,1-3.63-3.74,12.38,12.38,0,0,1-1.32-5.9v-15h6.47v14.1a6.67,6.67,0,0,0,1.52,4.69,6.16,6.16,0,0,0,8.37,0,6.62,6.62,0,0,0,1.53-4.69V51.62Z"/></svg>